<svg xmlns="http://www.w3.org/2000/svg" xmlns:xlink="http://www.w3.org/1999/xlink" width="1366" zoomAndPan="magnify" viewBox="0 0 1024.5 576" height="768" preserveAspectRatio="xMidYMid meet" version="1.0"><defs><filter x="0%" y="0%" width="100%" height="100%" id="f3fb8d1106"><feColorMatrix values="0 0 0 0 1 0 0 0 0 1 0 0 0 0 1 0 0 0 1 0" color-interpolation-filters="sRGB"/></filter><clipPath id="e68fb08c2e"><path d="M 0 0.140625 L 1024 0.140625 L 1024 575.859375 L 0 575.859375 Z M 0 0.140625 " clip-rule="nonzero"/></clipPath><clipPath id="bc7a6986cc"><path d="M 223 0.140625 L 801 0.140625 L 801 575.859375 L 223 575.859375 Z M 223 0.140625 " clip-rule="nonzero"/></clipPath><mask id="be79384fe5"><g filter="url(#f3fb8d1106)"><rect x="-102.45" width="1229.4" fill="#000000" y="-57.6" height="691.2" fill-opacity="0.08"/></g></mask><clipPath id="5082115ac5"><path d="M 1.140625 0.140625 L 576.859375 0.140625 L 576.859375 575.859375 L 1.140625 575.859375 Z M 1.140625 0.140625 " clip-rule="nonzero"/></clipPath><clipPath id="da5c012ed5"><rect x="0" width="578" y="0" height="576"/></clipPath></defs><g clip-path="url(#e68fb08c2e)"><path fill="#ffffff" d="M 0 0.140625 L 1024 0.140625 L 1024 575.859375 L 0 575.859375 Z M 0 0.140625 " fill-opacity="1" fill-rule="nonzero"/><path fill="#000000" d="M 0 0.140625 L 1024 0.140625 L 1024 575.859375 L 0 575.859375 Z M 0 0.140625 " fill-opacity="1" fill-rule="nonzero"/></g><g clip-path="url(#bc7a6986cc)"><g mask="url(#be79384fe5)"><g transform="matrix(1, 0, 0, 1, 223, 0.000000000000055289)"><g clip-path="url(#da5c012ed5)"><g clip-path="url(#5082115ac5)"><path fill="#ffffff" d="M 288.980469 330.917969 C 291.734375 330.917969 293.964844 333.148438 293.964844 335.898438 C 293.964844 338.648438 291.730469 340.878906 288.980469 340.878906 C 286.230469 340.878906 284.003906 338.652344 284.003906 335.898438 C 284.003906 333.148438 286.230469 330.917969 288.980469 330.917969 Z M 576.171875 0.730469 C 576.136719 0.730469 576.105469 0.699219 576.105469 0.664062 C 576.105469 0.628906 576.136719 0.605469 576.171875 0.605469 C 576.207031 0.605469 576.238281 0.628906 576.238281 0.664062 C 576.238281 0.699219 576.207031 0.730469 576.171875 0.730469 Z M 528.308594 0.851562 C 528.21875 0.851562 528.144531 0.777344 528.144531 0.6875 C 528.144531 0.597656 528.21875 0.523438 528.308594 0.523438 C 528.402344 0.523438 528.472656 0.597656 528.472656 0.6875 C 528.472656 0.777344 528.398438 0.851562 528.308594 0.851562 Z M 480.445312 0.96875 C 480.300781 0.96875 480.1875 0.847656 480.1875 0.703125 C 480.1875 0.566406 480.300781 0.445312 480.445312 0.445312 C 480.589844 0.445312 480.707031 0.566406 480.707031 0.703125 C 480.707031 0.851562 480.589844 0.96875 480.445312 0.96875 Z M 432.582031 1.085938 C 432.390625 1.085938 432.226562 0.929688 432.226562 0.730469 C 432.226562 0.53125 432.390625 0.375 432.582031 0.375 C 432.78125 0.375 432.945312 0.53125 432.945312 0.730469 C 432.945312 0.929688 432.78125 1.085938 432.582031 1.085938 Z M 384.722656 1.207031 C 384.472656 1.207031 384.265625 1.003906 384.265625 0.753906 C 384.265625 0.5 384.472656 0.296875 384.722656 0.296875 C 384.972656 0.296875 385.175781 0.5 385.175781 0.753906 C 385.175781 1.003906 384.972656 1.207031 384.722656 1.207031 Z M 336.859375 1.328125 C 336.550781 1.328125 336.304688 1.082031 336.304688 0.773438 C 336.304688 0.46875 336.550781 0.222656 336.859375 0.222656 C 337.164062 0.222656 337.410156 0.46875 337.410156 0.773438 C 337.410156 1.078125 337.164062 1.328125 336.859375 1.328125 Z M 576.171875 48.6875 C 576.082031 48.6875 576.007812 48.617188 576.007812 48.523438 C 576.007812 48.433594 576.082031 48.359375 576.171875 48.359375 C 576.265625 48.359375 576.335938 48.433594 576.335938 48.523438 C 576.335938 48.617188 576.261719 48.6875 576.171875 48.6875 Z M 528.308594 48.9375 C 528.09375 48.9375 527.925781 48.761719 527.925781 48.550781 C 527.925781 48.335938 528.09375 48.160156 528.308594 48.160156 C 528.527344 48.160156 528.695312 48.335938 528.695312 48.550781 C 528.695312 48.761719 528.527344 48.9375 528.308594 48.9375 Z M 480.445312 49.183594 C 480.109375 49.183594 479.832031 48.90625 479.832031 48.570312 C 479.832031 48.230469 480.109375 47.953125 480.445312 47.953125 C 480.785156 47.953125 481.0625 48.230469 481.0625 48.570312 C 481.0625 48.90625 480.78125 49.183594 480.445312 49.183594 Z M 432.582031 49.429688 C 432.125 49.429688 431.746094 49.058594 431.746094 48.59375 C 431.746094 48.128906 432.125 47.753906 432.582031 47.753906 C 433.046875 47.753906 433.429688 48.128906 433.429688 48.59375 C 433.429688 49.058594 433.046875 49.429688 432.582031 49.429688 Z M 384.722656 49.679688 C 384.132812 49.679688 383.65625 49.203125 383.65625 48.609375 C 383.65625 48.023438 384.132812 47.546875 384.722656 47.546875 C 385.308594 47.546875 385.785156 48.023438 385.785156 48.609375 C 385.785156 49.203125 385.308594 49.679688 384.722656 49.679688 Z M 336.859375 49.925781 C 336.148438 49.925781 335.570312 49.347656 335.570312 48.636719 C 335.570312 47.925781 336.148438 47.34375 336.859375 47.34375 C 337.574219 47.34375 338.152344 47.921875 338.152344 48.636719 C 338.152344 49.347656 337.574219 49.925781 336.859375 49.925781 Z M 576.171875 96.648438 C 576.027344 96.648438 575.914062 96.535156 575.914062 96.390625 C 575.914062 96.246094 576.027344 96.128906 576.171875 96.128906 C 576.316406 96.128906 576.433594 96.246094 576.433594 96.390625 C 576.433594 96.535156 576.316406 96.648438 576.171875 96.648438 Z M 528.308594 97.023438 C 527.972656 97.023438 527.695312 96.753906 527.695312 96.410156 C 527.695312 96.070312 527.972656 95.800781 528.308594 95.800781 C 528.648438 95.800781 528.925781 96.074219 528.925781 96.410156 C 528.925781 96.753906 528.648438 97.023438 528.308594 97.023438 Z M 480.445312 97.398438 C 479.917969 97.398438 479.480469 96.96875 479.480469 96.429688 C 479.480469 95.894531 479.914062 95.464844 480.445312 95.464844 C 480.980469 95.464844 481.417969 95.890625 481.417969 96.429688 C 481.417969 96.96875 480.980469 97.398438 480.445312 97.398438 Z M 432.582031 97.777344 C 431.859375 97.777344 431.261719 97.1875 431.261719 96.457031 C 431.261719 95.726562 431.859375 95.132812 432.582031 95.132812 C 433.3125 95.132812 433.90625 95.726562 433.90625 96.457031 C 433.90625 97.1875 433.3125 97.777344 432.582031 97.777344 Z M 384.722656 98.152344 C 383.792969 98.152344 383.046875 97.40625 383.046875 96.476562 C 383.046875 95.550781 383.792969 94.804688 384.722656 94.804688 C 385.648438 94.804688 386.394531 95.554688 386.394531 96.476562 C 386.398438 97.402344 385.648438 98.152344 384.722656 98.152344 Z M 336.859375 98.523438 C 335.738281 98.523438 334.835938 97.613281 334.835938 96.5 C 334.835938 95.378906 335.738281 94.464844 336.859375 94.464844 C 337.984375 94.464844 338.886719 95.378906 338.886719 96.5 C 338.890625 97.613281 337.984375 98.523438 336.859375 98.523438 Z M 576.171875 144.609375 C 575.972656 144.609375 575.816406 144.445312 575.816406 144.253906 C 575.816406 144.054688 575.972656 143.890625 576.171875 143.890625 C 576.367188 143.890625 576.527344 144.054688 576.527344 144.253906 C 576.527344 144.445312 576.367188 144.609375 576.171875 144.609375 Z M 528.308594 145.109375 C 527.84375 145.109375 527.46875 144.738281 527.46875 144.273438 C 527.46875 143.808594 527.84375 143.433594 528.308594 143.433594 C 528.773438 143.433594 529.148438 143.808594 529.148438 144.273438 C 529.148438 144.738281 528.773438 145.109375 528.308594 145.109375 Z M 480.445312 145.617188 C 479.714844 145.617188 479.125 145.027344 479.125 144.296875 C 479.125 143.566406 479.714844 142.972656 480.445312 142.972656 C 481.175781 142.972656 481.769531 143.566406 481.769531 144.296875 C 481.769531 145.027344 481.175781 145.617188 480.445312 145.617188 Z M 432.582031 146.117188 C 431.585938 146.117188 430.785156 145.308594 430.785156 144.3125 C 430.785156 143.316406 431.585938 142.507812 432.582031 142.507812 C 433.578125 142.507812 434.386719 143.316406 434.386719 144.3125 C 434.386719 145.308594 433.578125 146.117188 432.582031 146.117188 Z M 384.722656 146.625 C 383.457031 146.625 382.4375 145.597656 382.4375 144.339844 C 382.4375 143.078125 383.457031 142.054688 384.722656 142.054688 C 385.984375 142.054688 387.003906 143.078125 387.003906 144.339844 C 387.003906 145.597656 385.984375 146.625 384.722656 146.625 Z M 336.859375 147.125 C 335.335938 147.125 334.09375 145.886719 334.09375 144.363281 C 334.09375 142.828125 335.335938 141.59375 336.859375 141.59375 C 338.386719 141.59375 339.625 142.828125 339.625 144.363281 C 339.625 145.886719 338.386719 147.125 336.859375 147.125 Z M 576.171875 192.570312 C 575.917969 192.570312 575.714844 192.367188 575.714844 192.113281 C 575.714844 191.867188 575.917969 191.660156 576.171875 191.660156 C 576.417969 191.660156 576.625 191.863281 576.625 192.113281 C 576.625 192.363281 576.417969 192.570312 576.171875 192.570312 Z M 528.308594 193.199219 C 527.722656 193.199219 527.242188 192.722656 527.242188 192.136719 C 527.242188 191.542969 527.722656 191.066406 528.308594 191.066406 C 528.894531 191.066406 529.378906 191.542969 529.378906 192.136719 C 529.378906 192.722656 528.894531 193.199219 528.308594 193.199219 Z M 480.445312 193.828125 C 479.523438 193.828125 478.777344 193.082031 478.777344 192.160156 C 478.777344 191.230469 479.523438 190.480469 480.445312 190.480469 C 481.375 190.480469 482.125 191.230469 482.125 192.160156 C 482.125 193.082031 481.375 193.828125 480.445312 193.828125 Z M 432.582031 194.464844 C 431.324219 194.464844 430.300781 193.4375 430.300781 192.179688 C 430.300781 190.917969 431.320312 189.890625 432.582031 189.890625 C 433.847656 189.890625 434.867188 190.917969 434.867188 192.179688 C 434.867188 193.4375 433.847656 194.464844 432.582031 194.464844 Z M 384.722656 195.097656 C 383.125 195.097656 381.828125 193.800781 381.828125 192.199219 C 381.828125 190.601562 383.125 189.304688 384.722656 189.304688 C 386.324219 189.304688 387.621094 190.597656 387.621094 192.199219 C 387.621094 193.800781 386.324219 195.097656 384.722656 195.097656 Z M 336.859375 195.722656 C 334.925781 195.722656 333.355469 194.15625 333.355469 192.21875 C 333.355469 190.28125 334.925781 188.714844 336.859375 188.714844 C 338.796875 188.714844 340.367188 190.28125 340.367188 192.21875 C 340.367188 194.15625 338.796875 195.722656 336.859375 195.722656 Z M 576.171875 240.527344 C 575.863281 240.527344 575.617188 240.28125 575.617188 239.972656 C 575.617188 239.671875 575.863281 239.425781 576.171875 239.425781 C 576.472656 239.425781 576.722656 239.671875 576.722656 239.972656 C 576.722656 240.28125 576.472656 240.527344 576.171875 240.527344 Z M 528.308594 241.289062 C 527.597656 241.289062 527.015625 240.710938 527.015625 239.996094 C 527.015625 239.285156 527.597656 238.703125 528.308594 238.703125 C 529.023438 238.703125 529.601562 239.285156 529.601562 239.996094 C 529.597656 240.710938 529.019531 241.289062 528.308594 241.289062 Z M 480.445312 242.046875 C 479.324219 242.046875 478.421875 241.136719 478.421875 240.015625 C 478.421875 238.902344 479.324219 237.988281 480.445312 237.988281 C 481.566406 237.988281 482.472656 238.902344 482.472656 240.015625 C 482.472656 241.136719 481.566406 242.046875 480.445312 242.046875 Z M 432.582031 242.808594 C 431.058594 242.808594 429.820312 241.566406 429.820312 240.042969 C 429.820312 238.515625 431.058594 237.273438 432.582031 237.273438 C 434.117188 237.273438 435.351562 238.515625 435.351562 240.042969 C 435.351562 241.566406 434.117188 242.808594 432.582031 242.808594 Z M 384.722656 243.5625 C 382.789062 243.5625 381.21875 241.996094 381.21875 240.058594 C 381.21875 238.128906 382.789062 236.558594 384.722656 236.558594 C 386.660156 236.558594 388.230469 238.128906 388.230469 240.058594 C 388.230469 241.996094 386.660156 243.5625 384.722656 243.5625 Z M 336.859375 244.324219 C 334.515625 244.324219 332.621094 242.421875 332.621094 240.082031 C 332.621094 237.742188 334.515625 235.839844 336.859375 235.839844 C 339.203125 235.839844 341.101562 237.742188 341.101562 240.082031 C 341.101562 242.421875 339.203125 244.324219 336.859375 244.324219 Z M 288.980469 245.082031 C 291.734375 245.082031 293.964844 242.855469 293.964844 240.105469 C 293.964844 237.351562 291.730469 235.121094 288.980469 235.121094 C 286.230469 235.121094 284.003906 237.355469 284.003906 240.105469 C 284.003906 242.855469 286.230469 245.082031 288.980469 245.082031 Z M 288.980469 1.445312 C 289.34375 1.445312 289.632812 1.152344 289.632812 0.796875 C 289.632812 0.433594 289.34375 0.144531 288.980469 0.144531 C 288.625 0.144531 288.335938 0.433594 288.335938 0.796875 C 288.335938 1.152344 288.625 1.445312 288.980469 1.445312 Z M 1.8125 0.730469 C 1.847656 0.730469 1.878906 0.699219 1.878906 0.664062 C 1.878906 0.628906 1.847656 0.605469 1.8125 0.605469 C 1.777344 0.605469 1.746094 0.628906 1.746094 0.664062 C 1.746094 0.699219 1.777344 0.730469 1.8125 0.730469 Z M 49.675781 0.851562 C 49.761719 0.851562 49.832031 0.777344 49.832031 0.6875 C 49.832031 0.597656 49.761719 0.523438 49.675781 0.523438 C 49.585938 0.523438 49.511719 0.597656 49.511719 0.6875 C 49.511719 0.777344 49.585938 0.851562 49.675781 0.851562 Z M 97.53125 0.96875 C 97.675781 0.96875 97.792969 0.847656 97.792969 0.703125 C 97.792969 0.566406 97.675781 0.445312 97.53125 0.445312 C 97.394531 0.445312 97.273438 0.566406 97.273438 0.703125 C 97.273438 0.851562 97.394531 0.96875 97.53125 0.96875 Z M 145.394531 1.085938 C 145.597656 1.085938 145.75 0.929688 145.75 0.730469 C 145.75 0.53125 145.59375 0.375 145.394531 0.375 C 145.199219 0.375 145.039062 0.53125 145.039062 0.730469 C 145.039062 0.929688 145.199219 1.085938 145.394531 1.085938 Z M 193.257812 1.207031 C 193.511719 1.207031 193.710938 1.003906 193.710938 0.753906 C 193.710938 0.5 193.511719 0.296875 193.257812 0.296875 C 193.003906 0.296875 192.804688 0.5 192.804688 0.753906 C 192.808594 1.003906 193.003906 1.207031 193.257812 1.207031 Z M 241.125 1.328125 C 241.425781 1.328125 241.671875 1.082031 241.671875 0.773438 C 241.671875 0.46875 241.425781 0.222656 241.125 0.222656 C 240.816406 0.222656 240.570312 0.46875 240.570312 0.773438 C 240.570312 1.078125 240.816406 1.328125 241.125 1.328125 Z M 288.980469 50.175781 C 289.820312 50.175781 290.5 49.492188 290.5 48.660156 C 290.5 47.824219 289.820312 47.140625 288.980469 47.140625 C 288.148438 47.140625 287.46875 47.824219 287.46875 48.660156 C 287.464844 49.492188 288.148438 50.175781 288.980469 50.175781 Z M 1.8125 48.6875 C 1.90625 48.6875 1.976562 48.617188 1.976562 48.523438 C 1.976562 48.433594 1.90625 48.359375 1.8125 48.359375 C 1.722656 48.359375 1.648438 48.433594 1.648438 48.523438 C 1.648438 48.617188 1.722656 48.6875 1.8125 48.6875 Z M 49.675781 48.9375 C 49.886719 48.9375 50.0625 48.761719 50.0625 48.550781 C 50.0625 48.335938 49.886719 48.160156 49.675781 48.160156 C 49.460938 48.160156 49.285156 48.335938 49.285156 48.550781 C 49.285156 48.761719 49.460938 48.9375 49.675781 48.9375 Z M 97.53125 49.183594 C 97.878906 49.183594 98.148438 48.90625 98.148438 48.570312 C 98.148438 48.230469 97.875 47.953125 97.53125 47.953125 C 97.195312 47.953125 96.925781 48.230469 96.925781 48.570312 C 96.925781 48.90625 97.195312 49.183594 97.53125 49.183594 Z M 145.394531 49.429688 C 145.859375 49.429688 146.234375 49.058594 146.234375 48.59375 C 146.234375 48.128906 145.859375 47.753906 145.394531 47.753906 C 144.933594 47.753906 144.558594 48.128906 144.558594 48.59375 C 144.558594 49.058594 144.933594 49.429688 145.394531 49.429688 Z M 193.257812 49.679688 C 193.84375 49.679688 194.320312 49.203125 194.320312 48.609375 C 194.320312 48.023438 193.84375 47.546875 193.257812 47.546875 C 192.667969 47.546875 192.191406 48.023438 192.191406 48.609375 C 192.191406 49.203125 192.667969 49.679688 193.257812 49.679688 Z M 241.125 49.925781 C 241.835938 49.925781 242.417969 49.347656 242.417969 48.636719 C 242.417969 47.925781 241.835938 47.34375 241.125 47.34375 C 240.410156 47.34375 239.832031 47.921875 239.832031 48.636719 C 239.832031 49.347656 240.410156 49.925781 241.125 49.925781 Z M 288.980469 98.898438 C 290.300781 98.898438 291.363281 97.832031 291.363281 96.515625 C 291.363281 95.199219 290.300781 94.132812 288.980469 94.132812 C 287.664062 94.132812 286.605469 95.199219 286.605469 96.515625 C 286.605469 97.832031 287.664062 98.898438 288.980469 98.898438 Z M 1.8125 96.648438 C 1.957031 96.648438 2.074219 96.535156 2.074219 96.390625 C 2.074219 96.246094 1.957031 96.128906 1.8125 96.128906 C 1.667969 96.128906 1.554688 96.246094 1.554688 96.390625 C 1.554688 96.535156 1.667969 96.648438 1.8125 96.648438 Z M 49.675781 97.023438 C 50.015625 97.023438 50.285156 96.753906 50.285156 96.410156 C 50.285156 96.070312 50.011719 95.800781 49.675781 95.800781 C 49.332031 95.800781 49.0625 96.074219 49.0625 96.410156 C 49.0625 96.753906 49.332031 97.023438 49.675781 97.023438 Z M 97.53125 97.398438 C 98.070312 97.398438 98.503906 96.96875 98.503906 96.429688 C 98.503906 95.894531 98.070312 95.464844 97.53125 95.464844 C 97.003906 95.464844 96.566406 95.890625 96.566406 96.429688 C 96.570312 96.96875 97.003906 97.398438 97.53125 97.398438 Z M 145.394531 97.777344 C 146.125 97.777344 146.71875 97.1875 146.71875 96.457031 C 146.71875 95.726562 146.125 95.132812 145.394531 95.132812 C 144.667969 95.132812 144.074219 95.726562 144.074219 96.457031 C 144.074219 97.1875 144.664062 97.777344 145.394531 97.777344 Z M 193.257812 98.152344 C 194.183594 98.152344 194.9375 97.40625 194.9375 96.476562 C 194.9375 95.550781 194.183594 94.804688 193.257812 94.804688 C 192.335938 94.804688 191.582031 95.554688 191.582031 96.476562 C 191.582031 97.402344 192.335938 98.152344 193.257812 98.152344 Z M 241.125 98.523438 C 242.238281 98.523438 243.148438 97.613281 243.148438 96.5 C 243.148438 95.378906 242.238281 94.464844 241.125 94.464844 C 240.003906 94.464844 239.09375 95.378906 239.09375 96.5 C 239.089844 97.613281 240 98.523438 241.125 98.523438 Z M 288.980469 147.628906 C 290.777344 147.628906 292.234375 146.175781 292.234375 144.378906 C 292.234375 142.585938 290.78125 141.132812 288.980469 141.132812 C 287.1875 141.132812 285.734375 142.585938 285.734375 144.378906 C 285.734375 146.175781 287.1875 147.628906 288.980469 147.628906 Z M 1.8125 144.609375 C 2.011719 144.609375 2.167969 144.445312 2.167969 144.253906 C 2.167969 144.054688 2.011719 143.890625 1.8125 143.890625 C 1.613281 143.890625 1.457031 144.054688 1.457031 144.253906 C 1.457031 144.445312 1.613281 144.609375 1.8125 144.609375 Z M 49.675781 145.109375 C 50.132812 145.109375 50.515625 144.738281 50.515625 144.273438 C 50.515625 143.808594 50.132812 143.433594 49.675781 143.433594 C 49.210938 143.433594 48.832031 143.808594 48.832031 144.273438 C 48.832031 144.738281 49.210938 145.109375 49.675781 145.109375 Z M 97.53125 145.617188 C 98.261719 145.617188 98.855469 145.027344 98.855469 144.296875 C 98.855469 143.566406 98.261719 142.972656 97.53125 142.972656 C 96.804688 142.972656 96.210938 143.566406 96.210938 144.296875 C 96.210938 145.027344 96.804688 145.617188 97.53125 145.617188 Z M 145.394531 146.117188 C 146.390625 146.117188 147.199219 145.308594 147.199219 144.3125 C 147.199219 143.316406 146.390625 142.507812 145.394531 142.507812 C 144.398438 142.507812 143.589844 143.316406 143.589844 144.3125 C 143.589844 145.308594 144.402344 146.117188 145.394531 146.117188 Z M 193.257812 146.625 C 194.519531 146.625 195.542969 145.597656 195.542969 144.339844 C 195.542969 143.078125 194.519531 142.054688 193.257812 142.054688 C 192 142.054688 190.972656 143.078125 190.972656 144.339844 C 190.972656 145.597656 192 146.625 193.257812 146.625 Z M 241.125 147.125 C 242.648438 147.125 243.886719 145.886719 243.886719 144.363281 C 243.886719 142.828125 242.648438 141.59375 241.125 141.59375 C 239.59375 141.59375 238.355469 142.828125 238.355469 144.363281 C 238.351562 145.886719 239.59375 147.125 241.125 147.125 Z M 288.980469 196.359375 C 291.257812 196.359375 293.101562 194.515625 293.101562 192.242188 C 293.101562 189.96875 291.257812 188.128906 288.980469 188.128906 C 286.710938 188.128906 284.867188 189.972656 284.867188 192.242188 C 284.867188 194.515625 286.710938 196.359375 288.980469 196.359375 Z M 1.8125 192.570312 C 2.058594 192.570312 2.265625 192.367188 2.265625 192.113281 C 2.265625 191.867188 2.0625 191.660156 1.8125 191.660156 C 1.558594 191.660156 1.355469 191.863281 1.355469 192.113281 C 1.355469 192.363281 1.558594 192.570312 1.8125 192.570312 Z M 49.675781 193.199219 C 50.261719 193.199219 50.738281 192.722656 50.738281 192.136719 C 50.738281 191.542969 50.261719 191.066406 49.675781 191.066406 C 49.085938 191.066406 48.609375 191.542969 48.609375 192.136719 C 48.609375 192.722656 49.085938 193.199219 49.675781 193.199219 Z M 97.53125 193.828125 C 98.464844 193.828125 99.210938 193.082031 99.210938 192.160156 C 99.210938 191.230469 98.464844 190.480469 97.53125 190.480469 C 96.609375 190.480469 95.863281 191.230469 95.863281 192.160156 C 95.863281 193.082031 96.613281 193.828125 97.53125 193.828125 Z M 145.394531 194.464844 C 146.65625 194.464844 147.683594 193.4375 147.683594 192.179688 C 147.683594 190.917969 146.65625 189.890625 145.394531 189.890625 C 144.136719 189.890625 143.109375 190.917969 143.109375 192.179688 C 143.109375 193.4375 144.136719 194.464844 145.394531 194.464844 Z M 193.257812 195.097656 C 194.855469 195.097656 196.15625 193.800781 196.15625 192.199219 C 196.15625 190.601562 194.859375 189.304688 193.257812 189.304688 C 191.660156 189.304688 190.363281 190.597656 190.363281 192.199219 C 190.363281 193.800781 191.660156 195.097656 193.257812 195.097656 Z M 241.125 195.722656 C 243.0625 195.722656 244.628906 194.15625 244.628906 192.21875 C 244.628906 190.28125 243.0625 188.714844 241.125 188.714844 C 239.1875 188.714844 237.621094 190.28125 237.621094 192.21875 C 237.621094 194.15625 239.1875 195.722656 241.125 195.722656 Z M 1.8125 240.527344 C 2.117188 240.527344 2.363281 240.28125 2.363281 239.972656 C 2.363281 239.671875 2.117188 239.425781 1.8125 239.425781 C 1.503906 239.425781 1.257812 239.671875 1.257812 239.972656 C 1.257812 240.28125 1.503906 240.527344 1.8125 240.527344 Z M 49.675781 241.289062 C 50.386719 241.289062 50.960938 240.710938 50.960938 239.996094 C 50.960938 239.285156 50.390625 238.703125 49.675781 238.703125 C 48.960938 238.703125 48.382812 239.285156 48.382812 239.996094 C 48.382812 240.710938 48.960938 241.289062 49.675781 241.289062 Z M 97.53125 242.046875 C 98.65625 242.046875 99.566406 241.136719 99.566406 240.015625 C 99.566406 238.902344 98.65625 237.988281 97.53125 237.988281 C 96.417969 237.988281 95.507812 238.902344 95.507812 240.015625 C 95.507812 241.136719 96.417969 242.046875 97.53125 242.046875 Z M 145.394531 242.808594 C 146.921875 242.808594 148.164062 241.566406 148.164062 240.042969 C 148.164062 238.515625 146.921875 237.273438 145.394531 237.273438 C 143.871094 237.273438 142.628906 238.515625 142.628906 240.042969 C 142.628906 241.566406 143.871094 242.808594 145.394531 242.808594 Z M 193.257812 243.5625 C 195.195312 243.5625 196.765625 241.996094 196.765625 240.058594 C 196.765625 238.128906 195.195312 236.558594 193.257812 236.558594 C 191.324219 236.558594 189.753906 238.128906 189.753906 240.058594 C 189.753906 241.996094 191.324219 243.5625 193.257812 243.5625 Z M 241.125 244.324219 C 243.464844 244.324219 245.367188 242.421875 245.367188 240.082031 C 245.367188 237.742188 243.464844 235.839844 241.125 235.839844 C 238.777344 235.839844 236.875 237.742188 236.875 240.082031 C 236.875 242.421875 238.777344 244.324219 241.125 244.324219 Z M 576.171875 287.515625 C 575.808594 287.515625 575.519531 287.804688 575.519531 288.160156 C 575.519531 288.523438 575.808594 288.8125 576.171875 288.8125 C 576.527344 288.8125 576.816406 288.523438 576.816406 288.160156 C 576.816406 287.804688 576.527344 287.515625 576.171875 287.515625 Z M 528.308594 286.625 C 527.46875 286.625 526.796875 287.304688 526.796875 288.144531 C 526.796875 288.984375 527.46875 289.65625 528.308594 289.65625 C 529.148438 289.65625 529.824219 288.984375 529.824219 288.144531 C 529.824219 287.304688 529.148438 286.625 528.308594 286.625 Z M 480.445312 285.738281 C 479.132812 285.738281 478.0625 286.804688 478.0625 288.121094 C 478.0625 289.4375 479.132812 290.503906 480.445312 290.503906 C 481.761719 290.503906 482.828125 289.4375 482.828125 288.121094 C 482.828125 286.804688 481.761719 285.738281 480.445312 285.738281 Z M 432.582031 284.851562 C 430.792969 284.851562 429.335938 286.304688 429.335938 288.101562 C 429.335938 289.894531 430.792969 291.347656 432.582031 291.347656 C 434.382812 291.347656 435.835938 289.894531 435.835938 288.101562 C 435.835938 286.304688 434.378906 284.851562 432.582031 284.851562 Z M 384.722656 283.964844 C 382.449219 283.964844 380.609375 285.804688 380.609375 288.078125 C 380.609375 290.351562 382.453125 292.191406 384.722656 292.191406 C 386.992188 292.191406 388.839844 290.351562 388.839844 288.078125 C 388.839844 285.804688 386.992188 283.964844 384.722656 283.964844 Z M 336.859375 283.078125 C 334.109375 283.078125 331.878906 285.304688 331.878906 288.054688 C 331.878906 290.808594 334.113281 293.039062 336.859375 293.039062 C 339.609375 293.039062 341.84375 290.804688 341.84375 288.054688 C 341.84375 285.304688 339.613281 283.078125 336.859375 283.078125 Z M 576.171875 575.269531 C 576.136719 575.269531 576.105469 575.300781 576.105469 575.335938 C 576.105469 575.371094 576.136719 575.402344 576.171875 575.402344 C 576.207031 575.402344 576.238281 575.371094 576.238281 575.335938 C 576.238281 575.300781 576.207031 575.269531 576.171875 575.269531 Z M 528.308594 575.148438 C 528.21875 575.148438 528.144531 575.222656 528.144531 575.3125 C 528.144531 575.402344 528.21875 575.476562 528.308594 575.476562 C 528.402344 575.476562 528.472656 575.402344 528.472656 575.3125 C 528.472656 575.222656 528.398438 575.148438 528.308594 575.148438 Z M 480.445312 575.035156 C 480.300781 575.035156 480.1875 575.148438 480.1875 575.292969 C 480.1875 575.4375 480.300781 575.554688 480.445312 575.554688 C 480.589844 575.554688 480.707031 575.4375 480.707031 575.292969 C 480.707031 575.148438 480.589844 575.035156 480.445312 575.035156 Z M 432.582031 574.914062 C 432.390625 574.914062 432.226562 575.070312 432.226562 575.269531 C 432.226562 575.46875 432.390625 575.625 432.582031 575.625 C 432.78125 575.625 432.945312 575.46875 432.945312 575.269531 C 432.945312 575.070312 432.78125 574.914062 432.582031 574.914062 Z M 384.722656 574.792969 C 384.472656 574.792969 384.265625 574.996094 384.265625 575.25 C 384.265625 575.496094 384.472656 575.703125 384.722656 575.703125 C 384.972656 575.703125 385.175781 575.5 385.175781 575.25 C 385.175781 574.996094 384.972656 574.792969 384.722656 574.792969 Z M 336.859375 574.671875 C 336.550781 574.671875 336.304688 574.917969 336.304688 575.226562 C 336.304688 575.535156 336.550781 575.78125 336.859375 575.78125 C 337.164062 575.78125 337.410156 575.535156 337.410156 575.226562 C 337.410156 574.921875 337.164062 574.671875 336.859375 574.671875 Z M 576.171875 527.3125 C 576.082031 527.3125 576.007812 527.382812 576.007812 527.476562 C 576.007812 527.566406 576.082031 527.640625 576.171875 527.640625 C 576.265625 527.640625 576.335938 527.566406 576.335938 527.476562 C 576.332031 527.382812 576.261719 527.3125 576.171875 527.3125 Z M 528.308594 527.0625 C 528.09375 527.0625 527.925781 527.238281 527.925781 527.453125 C 527.925781 527.664062 528.09375 527.839844 528.308594 527.839844 C 528.527344 527.839844 528.695312 527.664062 528.695312 527.453125 C 528.695312 527.238281 528.527344 527.0625 528.308594 527.0625 Z M 480.445312 526.816406 C 480.109375 526.816406 479.832031 527.09375 479.832031 527.429688 C 479.832031 527.769531 480.109375 528.046875 480.445312 528.046875 C 480.785156 528.046875 481.0625 527.769531 481.0625 527.429688 C 481.0625 527.09375 480.78125 526.816406 480.445312 526.816406 Z M 432.582031 526.570312 C 432.125 526.570312 431.746094 526.949219 431.746094 527.40625 C 431.746094 527.871094 432.125 528.246094 432.582031 528.246094 C 433.046875 528.246094 433.429688 527.871094 433.429688 527.40625 C 433.429688 526.949219 433.046875 526.570312 432.582031 526.570312 Z M 384.722656 526.320312 C 384.132812 526.320312 383.65625 526.796875 383.65625 527.390625 C 383.65625 527.976562 384.132812 528.453125 384.722656 528.453125 C 385.308594 528.453125 385.785156 527.976562 385.785156 527.390625 C 385.785156 526.796875 385.308594 526.320312 384.722656 526.320312 Z M 336.859375 526.074219 C 336.148438 526.074219 335.570312 526.652344 335.570312 527.363281 C 335.570312 528.074219 336.148438 528.65625 336.859375 528.65625 C 337.574219 528.65625 338.152344 528.078125 338.152344 527.363281 C 338.152344 526.652344 337.574219 526.074219 336.859375 526.074219 Z M 576.171875 479.351562 C 576.027344 479.351562 575.914062 479.472656 575.914062 479.609375 C 575.914062 479.753906 576.027344 479.871094 576.171875 479.871094 C 576.316406 479.871094 576.433594 479.753906 576.433594 479.609375 C 576.433594 479.472656 576.316406 479.351562 576.171875 479.351562 Z M 528.308594 478.976562 C 527.972656 478.976562 527.695312 479.253906 527.695312 479.589844 C 527.695312 479.929688 527.972656 480.207031 528.308594 480.207031 C 528.648438 480.207031 528.925781 479.929688 528.925781 479.589844 C 528.925781 479.253906 528.648438 478.976562 528.308594 478.976562 Z M 480.445312 478.601562 C 479.917969 478.601562 479.480469 479.039062 479.480469 479.570312 C 479.480469 480.105469 479.914062 480.539062 480.445312 480.539062 C 480.980469 480.539062 481.417969 480.105469 481.417969 479.570312 C 481.417969 479.039062 480.980469 478.601562 480.445312 478.601562 Z M 432.582031 478.230469 C 431.859375 478.230469 431.261719 478.820312 431.261719 479.550781 C 431.261719 480.28125 431.859375 480.871094 432.582031 480.871094 C 433.3125 480.871094 433.90625 480.28125 433.90625 479.550781 C 433.90625 478.820312 433.3125 478.230469 432.582031 478.230469 Z M 384.722656 477.847656 C 383.792969 477.847656 383.046875 478.601562 383.046875 479.523438 C 383.046875 480.449219 383.792969 481.203125 384.722656 481.203125 C 385.648438 481.203125 386.394531 480.449219 386.394531 479.523438 C 386.398438 478.601562 385.648438 477.847656 384.722656 477.847656 Z M 336.859375 477.476562 C 335.738281 477.476562 334.835938 478.386719 334.835938 479.5 C 334.835938 480.621094 335.738281 481.535156 336.859375 481.535156 C 337.984375 481.535156 338.886719 480.621094 338.886719 479.5 C 338.890625 478.386719 337.984375 477.476562 336.859375 477.476562 Z M 576.171875 431.390625 C 575.972656 431.390625 575.816406 431.554688 575.816406 431.753906 C 575.816406 431.945312 575.972656 432.109375 576.171875 432.109375 C 576.367188 432.109375 576.527344 431.945312 576.527344 431.753906 C 576.527344 431.554688 576.367188 431.390625 576.171875 431.390625 Z M 528.308594 430.890625 C 527.84375 430.890625 527.46875 431.261719 527.46875 431.726562 C 527.46875 432.191406 527.84375 432.566406 528.308594 432.566406 C 528.773438 432.566406 529.148438 432.191406 529.148438 431.726562 C 529.148438 431.261719 528.773438 430.890625 528.308594 430.890625 Z M 480.445312 430.382812 C 479.714844 430.382812 479.125 430.980469 479.125 431.703125 C 479.125 432.433594 479.714844 433.027344 480.445312 433.027344 C 481.175781 433.027344 481.769531 432.433594 481.769531 431.703125 C 481.769531 430.980469 481.175781 430.382812 480.445312 430.382812 Z M 432.582031 429.882812 C 431.585938 429.882812 430.785156 430.691406 430.785156 431.6875 C 430.785156 432.683594 431.585938 433.492188 432.582031 433.492188 C 433.578125 433.492188 434.386719 432.683594 434.386719 431.6875 C 434.386719 430.691406 433.578125 429.882812 432.582031 429.882812 Z M 384.722656 429.382812 C 383.457031 429.382812 382.4375 430.402344 382.4375 431.660156 C 382.4375 432.921875 383.457031 433.949219 384.722656 433.949219 C 385.984375 433.949219 387.003906 432.921875 387.003906 431.660156 C 387.003906 430.402344 385.984375 429.382812 384.722656 429.382812 Z M 336.859375 428.875 C 335.335938 428.875 334.09375 430.113281 334.09375 431.644531 C 334.09375 433.171875 335.335938 434.40625 336.859375 434.40625 C 338.386719 434.40625 339.625 433.171875 339.625 431.644531 C 339.625 430.113281 338.386719 428.875 336.859375 428.875 Z M 576.171875 383.429688 C 575.917969 383.429688 575.714844 383.632812 575.714844 383.886719 C 575.714844 384.140625 575.917969 384.339844 576.171875 384.339844 C 576.417969 384.339844 576.625 384.140625 576.625 383.886719 C 576.625 383.632812 576.417969 383.429688 576.171875 383.429688 Z M 528.308594 382.800781 C 527.722656 382.800781 527.242188 383.277344 527.242188 383.863281 C 527.242188 384.457031 527.722656 384.933594 528.308594 384.933594 C 528.894531 384.933594 529.378906 384.457031 529.378906 383.863281 C 529.378906 383.277344 528.894531 382.800781 528.308594 382.800781 Z M 480.445312 382.171875 C 479.523438 382.171875 478.777344 382.917969 478.777344 383.847656 C 478.777344 384.769531 479.523438 385.519531 480.445312 385.519531 C 481.375 385.519531 482.125 384.769531 482.125 383.847656 C 482.125 382.917969 481.375 382.171875 480.445312 382.171875 Z M 432.582031 381.535156 C 431.324219 381.535156 430.300781 382.5625 430.300781 383.820312 C 430.300781 385.082031 431.320312 386.109375 432.582031 386.109375 C 433.847656 386.109375 434.867188 385.082031 434.867188 383.820312 C 434.867188 382.5625 433.847656 381.535156 432.582031 381.535156 Z M 384.722656 380.910156 C 383.125 380.910156 381.828125 382.199219 381.828125 383.804688 C 381.828125 385.402344 383.125 386.695312 384.722656 386.695312 C 386.324219 386.695312 387.621094 385.402344 387.621094 383.804688 C 387.621094 382.199219 386.324219 380.910156 384.722656 380.910156 Z M 336.859375 380.277344 C 334.925781 380.277344 333.355469 381.84375 333.355469 383.78125 C 333.355469 385.71875 334.925781 387.285156 336.859375 387.285156 C 338.796875 387.285156 340.367188 385.71875 340.367188 383.78125 C 340.367188 381.84375 338.796875 380.277344 336.859375 380.277344 Z M 576.171875 335.476562 C 575.863281 335.476562 575.617188 335.726562 575.617188 336.027344 C 575.617188 336.335938 575.863281 336.582031 576.171875 336.582031 C 576.472656 336.582031 576.722656 336.335938 576.722656 336.027344 C 576.722656 335.726562 576.472656 335.476562 576.171875 335.476562 Z M 528.308594 334.714844 C 527.597656 334.714844 527.015625 335.289062 527.015625 336.007812 C 527.015625 336.71875 527.597656 337.292969 528.308594 337.292969 C 529.023438 337.292969 529.601562 336.722656 529.601562 336.007812 C 529.597656 335.289062 529.019531 334.714844 528.308594 334.714844 Z M 480.445312 333.957031 C 479.324219 333.957031 478.421875 334.859375 478.421875 335.980469 C 478.421875 337.105469 479.324219 338.007812 480.445312 338.007812 C 481.566406 338.007812 482.472656 337.105469 482.472656 335.980469 C 482.472656 334.859375 481.566406 333.957031 480.445312 333.957031 Z M 432.582031 333.195312 C 431.058594 333.195312 429.820312 334.433594 429.820312 335.957031 C 429.820312 337.492188 431.058594 338.726562 432.582031 338.726562 C 434.117188 338.726562 435.351562 337.492188 435.351562 335.957031 C 435.351562 334.433594 434.117188 333.195312 432.582031 333.195312 Z M 384.722656 332.4375 C 382.789062 332.4375 381.21875 334.003906 381.21875 335.941406 C 381.21875 337.878906 382.789062 339.445312 384.722656 339.445312 C 386.660156 339.445312 388.230469 337.878906 388.230469 335.941406 C 388.230469 334.003906 386.660156 332.4375 384.722656 332.4375 Z M 336.859375 331.675781 C 334.515625 331.675781 332.621094 333.578125 332.621094 335.917969 C 332.621094 338.265625 334.515625 340.167969 336.859375 340.167969 C 339.203125 340.167969 341.101562 338.265625 341.101562 335.917969 C 341.101562 333.578125 339.203125 331.675781 336.859375 331.675781 Z M 288.980469 282.191406 C 292.214844 282.191406 294.832031 284.800781 294.832031 288.035156 C 294.832031 291.265625 292.214844 293.882812 288.980469 293.882812 C 285.753906 293.882812 283.136719 291.265625 283.136719 288.035156 C 283.136719 284.804688 285.753906 282.191406 288.980469 282.191406 Z M 1.8125 287.515625 C 2.167969 287.515625 2.464844 287.804688 2.464844 288.160156 C 2.464844 288.523438 2.167969 288.8125 1.8125 288.8125 C 1.453125 288.8125 1.160156 288.523438 1.160156 288.160156 C 1.160156 287.804688 1.453125 287.515625 1.8125 287.515625 Z M 49.675781 286.625 C 50.507812 286.625 51.1875 287.304688 51.1875 288.144531 C 51.1875 288.984375 50.507812 289.65625 49.675781 289.65625 C 48.835938 289.65625 48.15625 288.984375 48.15625 288.144531 C 48.15625 287.304688 48.835938 286.625 49.675781 286.625 Z M 97.53125 285.738281 C 98.847656 285.738281 99.917969 286.804688 99.917969 288.121094 C 99.917969 289.4375 98.847656 290.503906 97.53125 290.503906 C 96.21875 290.503906 95.148438 289.4375 95.148438 288.121094 C 95.148438 286.804688 96.21875 285.738281 97.53125 285.738281 Z M 145.394531 284.851562 C 147.195312 284.851562 148.648438 286.304688 148.648438 288.101562 C 148.648438 289.894531 147.195312 291.347656 145.394531 291.347656 C 143.605469 291.347656 142.152344 289.894531 142.152344 288.101562 C 142.152344 286.304688 143.605469 284.851562 145.394531 284.851562 Z M 193.257812 283.964844 C 195.535156 283.964844 197.371094 285.804688 197.371094 288.078125 C 197.371094 290.351562 195.53125 292.191406 193.257812 292.191406 C 190.984375 292.191406 189.144531 290.351562 189.144531 288.078125 C 189.144531 285.804688 190.984375 283.964844 193.257812 283.964844 Z M 241.125 283.078125 C 243.875 283.078125 246.101562 285.304688 246.101562 288.054688 C 246.101562 290.808594 243.875 293.039062 241.125 293.039062 C 238.371094 293.039062 236.140625 290.804688 236.140625 288.054688 C 236.140625 285.304688 238.371094 283.078125 241.125 283.078125 Z M 288.980469 574.558594 C 289.34375 574.558594 289.632812 574.847656 289.632812 575.203125 C 289.632812 575.5625 289.34375 575.851562 288.980469 575.851562 C 288.625 575.851562 288.335938 575.5625 288.335938 575.203125 C 288.335938 574.847656 288.625 574.558594 288.980469 574.558594 Z M 1.8125 575.269531 C 1.847656 575.269531 1.878906 575.300781 1.878906 575.335938 C 1.878906 575.371094 1.847656 575.402344 1.8125 575.402344 C 1.777344 575.402344 1.746094 575.371094 1.746094 575.335938 C 1.746094 575.300781 1.777344 575.269531 1.8125 575.269531 Z M 49.675781 575.148438 C 49.761719 575.148438 49.832031 575.222656 49.832031 575.3125 C 49.832031 575.402344 49.761719 575.476562 49.675781 575.476562 C 49.585938 575.476562 49.511719 575.402344 49.511719 575.3125 C 49.511719 575.222656 49.585938 575.148438 49.675781 575.148438 Z M 97.53125 575.035156 C 97.675781 575.035156 97.792969 575.148438 97.792969 575.292969 C 97.792969 575.4375 97.675781 575.554688 97.53125 575.554688 C 97.394531 575.554688 97.273438 575.4375 97.273438 575.292969 C 97.273438 575.148438 97.394531 575.035156 97.53125 575.035156 Z M 145.394531 574.914062 C 145.597656 574.914062 145.75 575.070312 145.75 575.269531 C 145.75 575.46875 145.59375 575.625 145.394531 575.625 C 145.199219 575.625 145.039062 575.46875 145.039062 575.269531 C 145.039062 575.070312 145.199219 574.914062 145.394531 574.914062 Z M 193.257812 574.792969 C 193.511719 574.792969 193.710938 574.996094 193.710938 575.25 C 193.710938 575.496094 193.511719 575.703125 193.257812 575.703125 C 193.003906 575.703125 192.804688 575.5 192.804688 575.25 C 192.808594 574.996094 193.003906 574.792969 193.257812 574.792969 Z M 241.125 574.671875 C 241.425781 574.671875 241.671875 574.917969 241.671875 575.226562 C 241.671875 575.535156 241.425781 575.78125 241.125 575.78125 C 240.816406 575.78125 240.570312 575.535156 240.570312 575.226562 C 240.570312 574.921875 240.816406 574.671875 241.125 574.671875 Z M 288.980469 525.824219 C 289.820312 525.824219 290.5 526.507812 290.5 527.34375 C 290.5 528.175781 289.820312 528.859375 288.980469 528.859375 C 288.148438 528.859375 287.46875 528.175781 287.46875 527.34375 C 287.464844 526.507812 288.148438 525.824219 288.980469 525.824219 Z M 1.8125 527.3125 C 1.90625 527.3125 1.976562 527.382812 1.976562 527.476562 C 1.976562 527.566406 1.90625 527.640625 1.8125 527.640625 C 1.722656 527.640625 1.648438 527.566406 1.648438 527.476562 C 1.648438 527.382812 1.722656 527.3125 1.8125 527.3125 Z M 49.675781 527.0625 C 49.886719 527.0625 50.0625 527.238281 50.0625 527.453125 C 50.0625 527.664062 49.886719 527.839844 49.675781 527.839844 C 49.460938 527.839844 49.285156 527.664062 49.285156 527.453125 C 49.285156 527.238281 49.460938 527.0625 49.675781 527.0625 Z M 97.53125 526.816406 C 97.878906 526.816406 98.148438 527.09375 98.148438 527.429688 C 98.148438 527.769531 97.875 528.046875 97.53125 528.046875 C 97.195312 528.046875 96.925781 527.769531 96.925781 527.429688 C 96.925781 527.09375 97.195312 526.816406 97.53125 526.816406 Z M 145.394531 526.570312 C 145.859375 526.570312 146.234375 526.949219 146.234375 527.40625 C 146.234375 527.871094 145.859375 528.246094 145.394531 528.246094 C 144.933594 528.246094 144.558594 527.871094 144.558594 527.40625 C 144.558594 526.949219 144.933594 526.570312 145.394531 526.570312 Z M 193.257812 526.320312 C 193.84375 526.320312 194.320312 526.796875 194.320312 527.390625 C 194.320312 527.976562 193.84375 528.453125 193.257812 528.453125 C 192.667969 528.453125 192.191406 527.976562 192.191406 527.390625 C 192.191406 526.796875 192.667969 526.320312 193.257812 526.320312 Z M 241.125 526.074219 C 241.835938 526.074219 242.417969 526.652344 242.417969 527.363281 C 242.417969 528.074219 241.835938 528.65625 241.125 528.65625 C 240.410156 528.65625 239.832031 528.078125 239.832031 527.363281 C 239.832031 526.652344 240.410156 526.074219 241.125 526.074219 Z M 288.980469 477.101562 C 290.300781 477.101562 291.363281 478.167969 291.363281 479.484375 C 291.363281 480.800781 290.300781 481.867188 288.980469 481.867188 C 287.664062 481.867188 286.605469 480.800781 286.605469 479.484375 C 286.605469 478.167969 287.664062 477.101562 288.980469 477.101562 Z M 1.8125 479.351562 C 1.957031 479.351562 2.074219 479.472656 2.074219 479.609375 C 2.074219 479.753906 1.957031 479.871094 1.8125 479.871094 C 1.667969 479.871094 1.554688 479.753906 1.554688 479.609375 C 1.554688 479.472656 1.667969 479.351562 1.8125 479.351562 Z M 49.675781 478.976562 C 50.015625 478.976562 50.285156 479.253906 50.285156 479.589844 C 50.285156 479.929688 50.011719 480.207031 49.675781 480.207031 C 49.332031 480.207031 49.0625 479.929688 49.0625 479.589844 C 49.0625 479.253906 49.332031 478.976562 49.675781 478.976562 Z M 97.53125 478.601562 C 98.070312 478.601562 98.503906 479.039062 98.503906 479.570312 C 98.503906 480.105469 98.070312 480.539062 97.53125 480.539062 C 97.003906 480.539062 96.566406 480.105469 96.566406 479.570312 C 96.570312 479.039062 97.003906 478.601562 97.53125 478.601562 Z M 145.394531 478.230469 C 146.125 478.230469 146.71875 478.820312 146.71875 479.550781 C 146.71875 480.28125 146.125 480.871094 145.394531 480.871094 C 144.667969 480.871094 144.074219 480.28125 144.074219 479.550781 C 144.074219 478.820312 144.664062 478.230469 145.394531 478.230469 Z M 193.257812 477.847656 C 194.183594 477.847656 194.9375 478.601562 194.9375 479.523438 C 194.9375 480.449219 194.183594 481.203125 193.257812 481.203125 C 192.335938 481.203125 191.582031 480.449219 191.582031 479.523438 C 191.582031 478.601562 192.335938 477.847656 193.257812 477.847656 Z M 241.125 477.476562 C 242.238281 477.476562 243.148438 478.386719 243.148438 479.5 C 243.148438 480.621094 242.238281 481.535156 241.125 481.535156 C 240.003906 481.535156 239.09375 480.621094 239.09375 479.5 C 239.089844 478.386719 240 477.476562 241.125 477.476562 Z M 288.980469 428.375 C 290.777344 428.375 292.234375 429.828125 292.234375 431.617188 C 292.234375 433.417969 290.78125 434.871094 288.980469 434.871094 C 287.1875 434.871094 285.734375 433.417969 285.734375 431.617188 C 285.734375 429.828125 287.1875 428.375 288.980469 428.375 Z M 1.8125 431.390625 C 2.011719 431.390625 2.167969 431.554688 2.167969 431.753906 C 2.167969 431.945312 2.011719 432.109375 1.8125 432.109375 C 1.613281 432.109375 1.457031 431.945312 1.457031 431.753906 C 1.457031 431.554688 1.613281 431.390625 1.8125 431.390625 Z M 49.675781 430.890625 C 50.132812 430.890625 50.515625 431.261719 50.515625 431.726562 C 50.515625 432.191406 50.132812 432.566406 49.675781 432.566406 C 49.210938 432.566406 48.832031 432.191406 48.832031 431.726562 C 48.832031 431.261719 49.210938 430.890625 49.675781 430.890625 Z M 97.53125 430.382812 C 98.261719 430.382812 98.855469 430.980469 98.855469 431.703125 C 98.855469 432.433594 98.261719 433.027344 97.53125 433.027344 C 96.804688 433.027344 96.210938 432.433594 96.210938 431.703125 C 96.210938 430.980469 96.804688 430.382812 97.53125 430.382812 Z M 145.394531 429.882812 C 146.390625 429.882812 147.199219 430.691406 147.199219 431.6875 C 147.199219 432.683594 146.390625 433.492188 145.394531 433.492188 C 144.398438 433.492188 143.589844 432.683594 143.589844 431.6875 C 143.589844 430.691406 144.402344 429.882812 145.394531 429.882812 Z M 193.257812 429.382812 C 194.519531 429.382812 195.542969 430.402344 195.542969 431.660156 C 195.542969 432.921875 194.519531 433.949219 193.257812 433.949219 C 192 433.949219 190.972656 432.921875 190.972656 431.660156 C 190.972656 430.402344 192 429.382812 193.257812 429.382812 Z M 241.125 428.875 C 242.648438 428.875 243.886719 430.113281 243.886719 431.644531 C 243.886719 433.171875 242.648438 434.40625 241.125 434.40625 C 239.59375 434.40625 238.355469 433.171875 238.355469 431.644531 C 238.351562 430.113281 239.59375 428.875 241.125 428.875 Z M 288.980469 379.640625 C 291.257812 379.640625 293.101562 381.488281 293.101562 383.757812 C 293.101562 386.03125 291.257812 387.871094 288.980469 387.871094 C 286.710938 387.871094 284.867188 386.027344 284.867188 383.757812 C 284.867188 381.488281 286.710938 379.640625 288.980469 379.640625 Z M 1.8125 383.429688 C 2.058594 383.429688 2.265625 383.632812 2.265625 383.886719 C 2.265625 384.140625 2.0625 384.339844 1.8125 384.339844 C 1.558594 384.339844 1.355469 384.140625 1.355469 383.886719 C 1.355469 383.632812 1.558594 383.429688 1.8125 383.429688 Z M 49.675781 382.800781 C 50.261719 382.800781 50.738281 383.277344 50.738281 383.863281 C 50.738281 384.457031 50.261719 384.933594 49.675781 384.933594 C 49.085938 384.933594 48.609375 384.457031 48.609375 383.863281 C 48.609375 383.277344 49.085938 382.800781 49.675781 382.800781 Z M 97.53125 382.171875 C 98.464844 382.171875 99.210938 382.917969 99.210938 383.847656 C 99.210938 384.769531 98.464844 385.519531 97.53125 385.519531 C 96.609375 385.519531 95.863281 384.769531 95.863281 383.847656 C 95.863281 382.917969 96.613281 382.171875 97.53125 382.171875 Z M 145.394531 381.535156 C 146.65625 381.535156 147.683594 382.5625 147.683594 383.820312 C 147.683594 385.082031 146.65625 386.109375 145.394531 386.109375 C 144.136719 386.109375 143.109375 385.082031 143.109375 383.820312 C 143.109375 382.5625 144.136719 381.535156 145.394531 381.535156 Z M 193.257812 380.910156 C 194.855469 380.910156 196.15625 382.199219 196.15625 383.804688 C 196.15625 385.402344 194.859375 386.695312 193.257812 386.695312 C 191.660156 386.695312 190.363281 385.402344 190.363281 383.804688 C 190.363281 382.199219 191.660156 380.910156 193.257812 380.910156 Z M 241.125 380.277344 C 243.0625 380.277344 244.628906 381.84375 244.628906 383.78125 C 244.628906 385.71875 243.0625 387.285156 241.125 387.285156 C 239.1875 387.285156 237.621094 385.71875 237.621094 383.78125 C 237.621094 381.84375 239.1875 380.277344 241.125 380.277344 Z M 1.8125 335.476562 C 2.117188 335.476562 2.363281 335.726562 2.363281 336.027344 C 2.363281 336.335938 2.117188 336.582031 1.8125 336.582031 C 1.503906 336.582031 1.257812 336.335938 1.257812 336.027344 C 1.257812 335.726562 1.503906 335.476562 1.8125 335.476562 Z M 49.675781 334.714844 C 50.386719 334.714844 50.960938 335.289062 50.960938 336.007812 C 50.960938 336.71875 50.390625 337.292969 49.675781 337.292969 C 48.960938 337.292969 48.382812 336.722656 48.382812 336.007812 C 48.382812 335.289062 48.960938 334.714844 49.675781 334.714844 Z M 97.53125 333.957031 C 98.65625 333.957031 99.566406 334.859375 99.566406 335.980469 C 99.566406 337.105469 98.65625 338.007812 97.53125 338.007812 C 96.417969 338.007812 95.507812 337.105469 95.507812 335.980469 C 95.507812 334.859375 96.417969 333.957031 97.53125 333.957031 Z M 145.394531 333.195312 C 146.921875 333.195312 148.164062 334.433594 148.164062 335.957031 C 148.164062 337.492188 146.921875 338.726562 145.394531 338.726562 C 143.871094 338.726562 142.628906 337.492188 142.628906 335.957031 C 142.628906 334.433594 143.871094 333.195312 145.394531 333.195312 Z M 193.257812 332.4375 C 195.195312 332.4375 196.765625 334.003906 196.765625 335.941406 C 196.765625 337.878906 195.195312 339.445312 193.257812 339.445312 C 191.324219 339.445312 189.753906 337.878906 189.753906 335.941406 C 189.753906 334.003906 191.324219 332.4375 193.257812 332.4375 Z M 241.125 331.675781 C 243.464844 331.675781 245.367188 333.578125 245.367188 335.917969 C 245.367188 338.265625 243.464844 340.167969 241.125 340.167969 C 238.777344 340.167969 236.875 338.265625 236.875 335.917969 C 236.875 333.578125 238.777344 331.675781 241.125 331.675781 Z M 241.125 331.675781 " fill-opacity="1" fill-rule="evenodd"/></g></g></g></g></g></svg>