<svg xmlns="http://www.w3.org/2000/svg" xmlns:xlink="http://www.w3.org/1999/xlink" width="1366" zoomAndPan="magnify" viewBox="0 0 1024.5 576" height="768" preserveAspectRatio="xMidYMid meet" version="1.0"><defs><filter x="0%" y="0%" width="100%" height="100%" id="e56197c82f"><feColorMatrix values="0 0 0 0 1 0 0 0 0 1 0 0 0 0 1 0 0 0 1 0" color-interpolation-filters="sRGB"/></filter><clipPath id="5231ce7c07"><path d="M 224 0.140625 L 801 0.140625 L 801 575.859375 L 224 575.859375 Z M 224 0.140625 " clip-rule="nonzero"/></clipPath><mask id="5af40d8a53"><g filter="url(#e56197c82f)"><rect x="-102.45" width="1229.4" fill="#000000" y="-57.6" height="691.2" fill-opacity="0.05"/></g></mask><clipPath id="f7ec7411f8"><path d="M 0.140625 0.140625 L 575.859375 0.140625 L 575.859375 575.859375 L 0.140625 575.859375 Z M 0.140625 0.140625 " clip-rule="nonzero"/></clipPath><clipPath id="936e8d2d40"><rect x="0" width="577" y="0" height="576"/></clipPath></defs><g clip-path="url(#5231ce7c07)"><g mask="url(#5af40d8a53)"><g transform="matrix(1, 0, 0, 1, 224, 0.000000000000055289)"><g clip-path="url(#936e8d2d40)"><g clip-path="url(#f7ec7411f8)"><path fill="#221f20" d="M 287.980469 330.917969 C 290.734375 330.917969 292.964844 333.148438 292.964844 335.898438 C 292.964844 338.648438 290.730469 340.878906 287.980469 340.878906 C 285.230469 340.878906 283.003906 338.652344 283.003906 335.898438 C 283.003906 333.148438 285.230469 330.917969 287.980469 330.917969 Z M 575.171875 0.730469 C 575.136719 0.730469 575.105469 0.699219 575.105469 0.664062 C 575.105469 0.628906 575.136719 0.605469 575.171875 0.605469 C 575.207031 0.605469 575.238281 0.628906 575.238281 0.664062 C 575.238281 0.699219 575.207031 0.730469 575.171875 0.730469 Z M 527.308594 0.851562 C 527.21875 0.851562 527.144531 0.777344 527.144531 0.6875 C 527.144531 0.597656 527.21875 0.523438 527.308594 0.523438 C 527.402344 0.523438 527.472656 0.597656 527.472656 0.6875 C 527.472656 0.777344 527.398438 0.851562 527.308594 0.851562 Z M 479.445312 0.96875 C 479.300781 0.96875 479.1875 0.847656 479.1875 0.703125 C 479.1875 0.566406 479.300781 0.445312 479.445312 0.445312 C 479.589844 0.445312 479.707031 0.566406 479.707031 0.703125 C 479.707031 0.851562 479.589844 0.96875 479.445312 0.96875 Z M 431.582031 1.085938 C 431.390625 1.085938 431.226562 0.929688 431.226562 0.730469 C 431.226562 0.53125 431.390625 0.375 431.582031 0.375 C 431.78125 0.375 431.945312 0.53125 431.945312 0.730469 C 431.945312 0.929688 431.78125 1.085938 431.582031 1.085938 Z M 383.722656 1.207031 C 383.472656 1.207031 383.265625 1.003906 383.265625 0.753906 C 383.265625 0.5 383.472656 0.296875 383.722656 0.296875 C 383.972656 0.296875 384.175781 0.5 384.175781 0.753906 C 384.175781 1.003906 383.972656 1.207031 383.722656 1.207031 Z M 335.859375 1.328125 C 335.550781 1.328125 335.304688 1.082031 335.304688 0.773438 C 335.304688 0.46875 335.550781 0.222656 335.859375 0.222656 C 336.164062 0.222656 336.410156 0.46875 336.410156 0.773438 C 336.410156 1.078125 336.164062 1.328125 335.859375 1.328125 Z M 575.171875 48.6875 C 575.082031 48.6875 575.007812 48.617188 575.007812 48.523438 C 575.007812 48.433594 575.082031 48.359375 575.171875 48.359375 C 575.265625 48.359375 575.335938 48.433594 575.335938 48.523438 C 575.335938 48.617188 575.261719 48.6875 575.171875 48.6875 Z M 527.308594 48.9375 C 527.09375 48.9375 526.925781 48.761719 526.925781 48.550781 C 526.925781 48.335938 527.09375 48.160156 527.308594 48.160156 C 527.527344 48.160156 527.695312 48.335938 527.695312 48.550781 C 527.695312 48.761719 527.527344 48.9375 527.308594 48.9375 Z M 479.445312 49.183594 C 479.109375 49.183594 478.832031 48.90625 478.832031 48.570312 C 478.832031 48.230469 479.109375 47.953125 479.445312 47.953125 C 479.785156 47.953125 480.0625 48.230469 480.0625 48.570312 C 480.0625 48.90625 479.78125 49.183594 479.445312 49.183594 Z M 431.582031 49.429688 C 431.125 49.429688 430.746094 49.058594 430.746094 48.59375 C 430.746094 48.128906 431.125 47.753906 431.582031 47.753906 C 432.046875 47.753906 432.429688 48.128906 432.429688 48.59375 C 432.429688 49.058594 432.046875 49.429688 431.582031 49.429688 Z M 383.722656 49.679688 C 383.132812 49.679688 382.65625 49.203125 382.65625 48.609375 C 382.65625 48.023438 383.132812 47.546875 383.722656 47.546875 C 384.308594 47.546875 384.785156 48.023438 384.785156 48.609375 C 384.785156 49.203125 384.308594 49.679688 383.722656 49.679688 Z M 335.859375 49.925781 C 335.148438 49.925781 334.570312 49.347656 334.570312 48.636719 C 334.570312 47.925781 335.148438 47.34375 335.859375 47.34375 C 336.574219 47.34375 337.152344 47.921875 337.152344 48.636719 C 337.152344 49.347656 336.574219 49.925781 335.859375 49.925781 Z M 575.171875 96.648438 C 575.027344 96.648438 574.914062 96.535156 574.914062 96.390625 C 574.914062 96.246094 575.027344 96.128906 575.171875 96.128906 C 575.316406 96.128906 575.433594 96.246094 575.433594 96.390625 C 575.433594 96.535156 575.316406 96.648438 575.171875 96.648438 Z M 527.308594 97.023438 C 526.972656 97.023438 526.695312 96.753906 526.695312 96.410156 C 526.695312 96.070312 526.972656 95.800781 527.308594 95.800781 C 527.648438 95.800781 527.925781 96.074219 527.925781 96.410156 C 527.925781 96.753906 527.648438 97.023438 527.308594 97.023438 Z M 479.445312 97.398438 C 478.917969 97.398438 478.480469 96.96875 478.480469 96.429688 C 478.480469 95.894531 478.914062 95.464844 479.445312 95.464844 C 479.980469 95.464844 480.417969 95.890625 480.417969 96.429688 C 480.417969 96.96875 479.980469 97.398438 479.445312 97.398438 Z M 431.582031 97.777344 C 430.859375 97.777344 430.261719 97.1875 430.261719 96.457031 C 430.261719 95.726562 430.859375 95.132812 431.582031 95.132812 C 432.3125 95.132812 432.90625 95.726562 432.90625 96.457031 C 432.90625 97.1875 432.3125 97.777344 431.582031 97.777344 Z M 383.722656 98.152344 C 382.792969 98.152344 382.046875 97.40625 382.046875 96.476562 C 382.046875 95.550781 382.792969 94.804688 383.722656 94.804688 C 384.648438 94.804688 385.394531 95.554688 385.394531 96.476562 C 385.398438 97.402344 384.648438 98.152344 383.722656 98.152344 Z M 335.859375 98.523438 C 334.738281 98.523438 333.835938 97.613281 333.835938 96.5 C 333.835938 95.378906 334.738281 94.464844 335.859375 94.464844 C 336.984375 94.464844 337.886719 95.378906 337.886719 96.5 C 337.890625 97.613281 336.984375 98.523438 335.859375 98.523438 Z M 575.171875 144.609375 C 574.972656 144.609375 574.816406 144.445312 574.816406 144.253906 C 574.816406 144.054688 574.972656 143.890625 575.171875 143.890625 C 575.367188 143.890625 575.527344 144.054688 575.527344 144.253906 C 575.527344 144.445312 575.367188 144.609375 575.171875 144.609375 Z M 527.308594 145.109375 C 526.84375 145.109375 526.46875 144.738281 526.46875 144.273438 C 526.46875 143.808594 526.84375 143.433594 527.308594 143.433594 C 527.773438 143.433594 528.148438 143.808594 528.148438 144.273438 C 528.148438 144.738281 527.773438 145.109375 527.308594 145.109375 Z M 479.445312 145.617188 C 478.714844 145.617188 478.125 145.027344 478.125 144.296875 C 478.125 143.566406 478.714844 142.972656 479.445312 142.972656 C 480.175781 142.972656 480.769531 143.566406 480.769531 144.296875 C 480.769531 145.027344 480.175781 145.617188 479.445312 145.617188 Z M 431.582031 146.117188 C 430.585938 146.117188 429.785156 145.308594 429.785156 144.3125 C 429.785156 143.316406 430.585938 142.507812 431.582031 142.507812 C 432.578125 142.507812 433.386719 143.316406 433.386719 144.3125 C 433.386719 145.308594 432.578125 146.117188 431.582031 146.117188 Z M 383.722656 146.625 C 382.457031 146.625 381.4375 145.597656 381.4375 144.339844 C 381.4375 143.078125 382.457031 142.054688 383.722656 142.054688 C 384.984375 142.054688 386.003906 143.078125 386.003906 144.339844 C 386.003906 145.597656 384.984375 146.625 383.722656 146.625 Z M 335.859375 147.125 C 334.335938 147.125 333.09375 145.886719 333.09375 144.363281 C 333.09375 142.828125 334.335938 141.59375 335.859375 141.59375 C 337.386719 141.59375 338.625 142.828125 338.625 144.363281 C 338.625 145.886719 337.386719 147.125 335.859375 147.125 Z M 575.171875 192.570312 C 574.917969 192.570312 574.714844 192.367188 574.714844 192.113281 C 574.714844 191.867188 574.917969 191.660156 575.171875 191.660156 C 575.417969 191.660156 575.625 191.863281 575.625 192.113281 C 575.625 192.363281 575.417969 192.570312 575.171875 192.570312 Z M 527.308594 193.199219 C 526.722656 193.199219 526.242188 192.722656 526.242188 192.136719 C 526.242188 191.542969 526.722656 191.066406 527.308594 191.066406 C 527.894531 191.066406 528.378906 191.542969 528.378906 192.136719 C 528.378906 192.722656 527.894531 193.199219 527.308594 193.199219 Z M 479.445312 193.828125 C 478.523438 193.828125 477.777344 193.082031 477.777344 192.160156 C 477.777344 191.230469 478.523438 190.480469 479.445312 190.480469 C 480.375 190.480469 481.125 191.230469 481.125 192.160156 C 481.125 193.082031 480.375 193.828125 479.445312 193.828125 Z M 431.582031 194.464844 C 430.324219 194.464844 429.300781 193.4375 429.300781 192.179688 C 429.300781 190.917969 430.320312 189.890625 431.582031 189.890625 C 432.847656 189.890625 433.867188 190.917969 433.867188 192.179688 C 433.867188 193.4375 432.847656 194.464844 431.582031 194.464844 Z M 383.722656 195.097656 C 382.125 195.097656 380.828125 193.800781 380.828125 192.199219 C 380.828125 190.601562 382.125 189.304688 383.722656 189.304688 C 385.324219 189.304688 386.621094 190.597656 386.621094 192.199219 C 386.621094 193.800781 385.324219 195.097656 383.722656 195.097656 Z M 335.859375 195.722656 C 333.925781 195.722656 332.355469 194.15625 332.355469 192.21875 C 332.355469 190.28125 333.925781 188.714844 335.859375 188.714844 C 337.796875 188.714844 339.367188 190.28125 339.367188 192.21875 C 339.367188 194.15625 337.796875 195.722656 335.859375 195.722656 Z M 575.171875 240.527344 C 574.863281 240.527344 574.617188 240.28125 574.617188 239.972656 C 574.617188 239.671875 574.863281 239.425781 575.171875 239.425781 C 575.472656 239.425781 575.722656 239.671875 575.722656 239.972656 C 575.722656 240.28125 575.472656 240.527344 575.171875 240.527344 Z M 527.308594 241.289062 C 526.597656 241.289062 526.015625 240.710938 526.015625 239.996094 C 526.015625 239.285156 526.597656 238.703125 527.308594 238.703125 C 528.023438 238.703125 528.601562 239.285156 528.601562 239.996094 C 528.597656 240.710938 528.019531 241.289062 527.308594 241.289062 Z M 479.445312 242.046875 C 478.324219 242.046875 477.421875 241.136719 477.421875 240.015625 C 477.421875 238.902344 478.324219 237.988281 479.445312 237.988281 C 480.566406 237.988281 481.472656 238.902344 481.472656 240.015625 C 481.472656 241.136719 480.566406 242.046875 479.445312 242.046875 Z M 431.582031 242.808594 C 430.058594 242.808594 428.820312 241.566406 428.820312 240.042969 C 428.820312 238.515625 430.058594 237.273438 431.582031 237.273438 C 433.117188 237.273438 434.351562 238.515625 434.351562 240.042969 C 434.351562 241.566406 433.117188 242.808594 431.582031 242.808594 Z M 383.722656 243.5625 C 381.789062 243.5625 380.21875 241.996094 380.21875 240.058594 C 380.21875 238.128906 381.789062 236.558594 383.722656 236.558594 C 385.660156 236.558594 387.230469 238.128906 387.230469 240.058594 C 387.230469 241.996094 385.660156 243.5625 383.722656 243.5625 Z M 335.859375 244.324219 C 333.515625 244.324219 331.621094 242.421875 331.621094 240.082031 C 331.621094 237.742188 333.515625 235.839844 335.859375 235.839844 C 338.203125 235.839844 340.101562 237.742188 340.101562 240.082031 C 340.101562 242.421875 338.203125 244.324219 335.859375 244.324219 Z M 287.980469 245.082031 C 290.734375 245.082031 292.964844 242.855469 292.964844 240.105469 C 292.964844 237.351562 290.730469 235.121094 287.980469 235.121094 C 285.230469 235.121094 283.003906 237.355469 283.003906 240.105469 C 283.003906 242.855469 285.230469 245.082031 287.980469 245.082031 Z M 287.980469 1.445312 C 288.34375 1.445312 288.632812 1.152344 288.632812 0.796875 C 288.632812 0.433594 288.34375 0.144531 287.980469 0.144531 C 287.625 0.144531 287.335938 0.433594 287.335938 0.796875 C 287.335938 1.152344 287.625 1.445312 287.980469 1.445312 Z M 0.8125 0.730469 C 0.847656 0.730469 0.878906 0.699219 0.878906 0.664062 C 0.878906 0.628906 0.847656 0.605469 0.8125 0.605469 C 0.777344 0.605469 0.746094 0.628906 0.746094 0.664062 C 0.746094 0.699219 0.777344 0.730469 0.8125 0.730469 Z M 48.675781 0.851562 C 48.761719 0.851562 48.832031 0.777344 48.832031 0.6875 C 48.832031 0.597656 48.761719 0.523438 48.675781 0.523438 C 48.585938 0.523438 48.511719 0.597656 48.511719 0.6875 C 48.511719 0.777344 48.585938 0.851562 48.675781 0.851562 Z M 96.53125 0.96875 C 96.675781 0.96875 96.792969 0.847656 96.792969 0.703125 C 96.792969 0.566406 96.675781 0.445312 96.53125 0.445312 C 96.394531 0.445312 96.273438 0.566406 96.273438 0.703125 C 96.273438 0.851562 96.394531 0.96875 96.53125 0.96875 Z M 144.394531 1.085938 C 144.597656 1.085938 144.75 0.929688 144.75 0.730469 C 144.75 0.53125 144.59375 0.375 144.394531 0.375 C 144.199219 0.375 144.039062 0.53125 144.039062 0.730469 C 144.039062 0.929688 144.199219 1.085938 144.394531 1.085938 Z M 192.257812 1.207031 C 192.511719 1.207031 192.710938 1.003906 192.710938 0.753906 C 192.710938 0.5 192.511719 0.296875 192.257812 0.296875 C 192.003906 0.296875 191.804688 0.5 191.804688 0.753906 C 191.808594 1.003906 192.003906 1.207031 192.257812 1.207031 Z M 240.125 1.328125 C 240.425781 1.328125 240.671875 1.082031 240.671875 0.773438 C 240.671875 0.46875 240.425781 0.222656 240.125 0.222656 C 239.816406 0.222656 239.570312 0.46875 239.570312 0.773438 C 239.570312 1.078125 239.816406 1.328125 240.125 1.328125 Z M 287.980469 50.175781 C 288.820312 50.175781 289.5 49.492188 289.5 48.660156 C 289.5 47.824219 288.820312 47.140625 287.980469 47.140625 C 287.148438 47.140625 286.46875 47.824219 286.46875 48.660156 C 286.464844 49.492188 287.148438 50.175781 287.980469 50.175781 Z M 0.8125 48.6875 C 0.90625 48.6875 0.976562 48.617188 0.976562 48.523438 C 0.976562 48.433594 0.90625 48.359375 0.8125 48.359375 C 0.722656 48.359375 0.648438 48.433594 0.648438 48.523438 C 0.648438 48.617188 0.722656 48.6875 0.8125 48.6875 Z M 48.675781 48.9375 C 48.886719 48.9375 49.0625 48.761719 49.0625 48.550781 C 49.0625 48.335938 48.886719 48.160156 48.675781 48.160156 C 48.460938 48.160156 48.285156 48.335938 48.285156 48.550781 C 48.285156 48.761719 48.460938 48.9375 48.675781 48.9375 Z M 96.53125 49.183594 C 96.878906 49.183594 97.148438 48.90625 97.148438 48.570312 C 97.148438 48.230469 96.875 47.953125 96.53125 47.953125 C 96.195312 47.953125 95.925781 48.230469 95.925781 48.570312 C 95.925781 48.90625 96.195312 49.183594 96.53125 49.183594 Z M 144.394531 49.429688 C 144.859375 49.429688 145.234375 49.058594 145.234375 48.59375 C 145.234375 48.128906 144.859375 47.753906 144.394531 47.753906 C 143.933594 47.753906 143.558594 48.128906 143.558594 48.59375 C 143.558594 49.058594 143.933594 49.429688 144.394531 49.429688 Z M 192.257812 49.679688 C 192.84375 49.679688 193.320312 49.203125 193.320312 48.609375 C 193.320312 48.023438 192.84375 47.546875 192.257812 47.546875 C 191.667969 47.546875 191.191406 48.023438 191.191406 48.609375 C 191.191406 49.203125 191.667969 49.679688 192.257812 49.679688 Z M 240.125 49.925781 C 240.835938 49.925781 241.417969 49.347656 241.417969 48.636719 C 241.417969 47.925781 240.835938 47.34375 240.125 47.34375 C 239.410156 47.34375 238.832031 47.921875 238.832031 48.636719 C 238.832031 49.347656 239.410156 49.925781 240.125 49.925781 Z M 287.980469 98.898438 C 289.300781 98.898438 290.363281 97.832031 290.363281 96.515625 C 290.363281 95.199219 289.300781 94.132812 287.980469 94.132812 C 286.664062 94.132812 285.605469 95.199219 285.605469 96.515625 C 285.605469 97.832031 286.664062 98.898438 287.980469 98.898438 Z M 0.8125 96.648438 C 0.957031 96.648438 1.074219 96.535156 1.074219 96.390625 C 1.074219 96.246094 0.957031 96.128906 0.8125 96.128906 C 0.667969 96.128906 0.554688 96.246094 0.554688 96.390625 C 0.554688 96.535156 0.667969 96.648438 0.8125 96.648438 Z M 48.675781 97.023438 C 49.015625 97.023438 49.285156 96.753906 49.285156 96.410156 C 49.285156 96.070312 49.011719 95.800781 48.675781 95.800781 C 48.332031 95.800781 48.0625 96.074219 48.0625 96.410156 C 48.0625 96.753906 48.332031 97.023438 48.675781 97.023438 Z M 96.53125 97.398438 C 97.070312 97.398438 97.503906 96.96875 97.503906 96.429688 C 97.503906 95.894531 97.070312 95.464844 96.53125 95.464844 C 96.003906 95.464844 95.566406 95.890625 95.566406 96.429688 C 95.570312 96.96875 96.003906 97.398438 96.53125 97.398438 Z M 144.394531 97.777344 C 145.125 97.777344 145.71875 97.1875 145.71875 96.457031 C 145.71875 95.726562 145.125 95.132812 144.394531 95.132812 C 143.667969 95.132812 143.074219 95.726562 143.074219 96.457031 C 143.074219 97.1875 143.664062 97.777344 144.394531 97.777344 Z M 192.257812 98.152344 C 193.183594 98.152344 193.9375 97.40625 193.9375 96.476562 C 193.9375 95.550781 193.183594 94.804688 192.257812 94.804688 C 191.335938 94.804688 190.582031 95.554688 190.582031 96.476562 C 190.582031 97.402344 191.335938 98.152344 192.257812 98.152344 Z M 240.125 98.523438 C 241.238281 98.523438 242.148438 97.613281 242.148438 96.5 C 242.148438 95.378906 241.238281 94.464844 240.125 94.464844 C 239.003906 94.464844 238.09375 95.378906 238.09375 96.5 C 238.089844 97.613281 239 98.523438 240.125 98.523438 Z M 287.980469 147.628906 C 289.777344 147.628906 291.234375 146.175781 291.234375 144.378906 C 291.234375 142.585938 289.78125 141.132812 287.980469 141.132812 C 286.1875 141.132812 284.734375 142.585938 284.734375 144.378906 C 284.734375 146.175781 286.1875 147.628906 287.980469 147.628906 Z M 0.8125 144.609375 C 1.011719 144.609375 1.167969 144.445312 1.167969 144.253906 C 1.167969 144.054688 1.011719 143.890625 0.8125 143.890625 C 0.613281 143.890625 0.457031 144.054688 0.457031 144.253906 C 0.457031 144.445312 0.613281 144.609375 0.8125 144.609375 Z M 48.675781 145.109375 C 49.132812 145.109375 49.515625 144.738281 49.515625 144.273438 C 49.515625 143.808594 49.132812 143.433594 48.675781 143.433594 C 48.210938 143.433594 47.832031 143.808594 47.832031 144.273438 C 47.832031 144.738281 48.210938 145.109375 48.675781 145.109375 Z M 96.53125 145.617188 C 97.261719 145.617188 97.855469 145.027344 97.855469 144.296875 C 97.855469 143.566406 97.261719 142.972656 96.53125 142.972656 C 95.804688 142.972656 95.210938 143.566406 95.210938 144.296875 C 95.210938 145.027344 95.804688 145.617188 96.53125 145.617188 Z M 144.394531 146.117188 C 145.390625 146.117188 146.199219 145.308594 146.199219 144.3125 C 146.199219 143.316406 145.390625 142.507812 144.394531 142.507812 C 143.398438 142.507812 142.589844 143.316406 142.589844 144.3125 C 142.589844 145.308594 143.402344 146.117188 144.394531 146.117188 Z M 192.257812 146.625 C 193.519531 146.625 194.542969 145.597656 194.542969 144.339844 C 194.542969 143.078125 193.519531 142.054688 192.257812 142.054688 C 191 142.054688 189.972656 143.078125 189.972656 144.339844 C 189.972656 145.597656 191 146.625 192.257812 146.625 Z M 240.125 147.125 C 241.648438 147.125 242.886719 145.886719 242.886719 144.363281 C 242.886719 142.828125 241.648438 141.59375 240.125 141.59375 C 238.59375 141.59375 237.355469 142.828125 237.355469 144.363281 C 237.351562 145.886719 238.59375 147.125 240.125 147.125 Z M 287.980469 196.359375 C 290.257812 196.359375 292.101562 194.515625 292.101562 192.242188 C 292.101562 189.96875 290.257812 188.128906 287.980469 188.128906 C 285.710938 188.128906 283.867188 189.972656 283.867188 192.242188 C 283.867188 194.515625 285.710938 196.359375 287.980469 196.359375 Z M 0.8125 192.570312 C 1.058594 192.570312 1.265625 192.367188 1.265625 192.113281 C 1.265625 191.867188 1.0625 191.660156 0.8125 191.660156 C 0.558594 191.660156 0.355469 191.863281 0.355469 192.113281 C 0.355469 192.363281 0.558594 192.570312 0.8125 192.570312 Z M 48.675781 193.199219 C 49.261719 193.199219 49.738281 192.722656 49.738281 192.136719 C 49.738281 191.542969 49.261719 191.066406 48.675781 191.066406 C 48.085938 191.066406 47.609375 191.542969 47.609375 192.136719 C 47.609375 192.722656 48.085938 193.199219 48.675781 193.199219 Z M 96.53125 193.828125 C 97.464844 193.828125 98.210938 193.082031 98.210938 192.160156 C 98.210938 191.230469 97.464844 190.480469 96.53125 190.480469 C 95.609375 190.480469 94.863281 191.230469 94.863281 192.160156 C 94.863281 193.082031 95.613281 193.828125 96.53125 193.828125 Z M 144.394531 194.464844 C 145.65625 194.464844 146.683594 193.4375 146.683594 192.179688 C 146.683594 190.917969 145.65625 189.890625 144.394531 189.890625 C 143.136719 189.890625 142.109375 190.917969 142.109375 192.179688 C 142.109375 193.4375 143.136719 194.464844 144.394531 194.464844 Z M 192.257812 195.097656 C 193.855469 195.097656 195.15625 193.800781 195.15625 192.199219 C 195.15625 190.601562 193.859375 189.304688 192.257812 189.304688 C 190.660156 189.304688 189.363281 190.597656 189.363281 192.199219 C 189.363281 193.800781 190.660156 195.097656 192.257812 195.097656 Z M 240.125 195.722656 C 242.0625 195.722656 243.628906 194.15625 243.628906 192.21875 C 243.628906 190.28125 242.0625 188.714844 240.125 188.714844 C 238.1875 188.714844 236.621094 190.28125 236.621094 192.21875 C 236.621094 194.15625 238.1875 195.722656 240.125 195.722656 Z M 0.8125 240.527344 C 1.117188 240.527344 1.363281 240.28125 1.363281 239.972656 C 1.363281 239.671875 1.117188 239.425781 0.8125 239.425781 C 0.503906 239.425781 0.257812 239.671875 0.257812 239.972656 C 0.257812 240.28125 0.503906 240.527344 0.8125 240.527344 Z M 48.675781 241.289062 C 49.386719 241.289062 49.960938 240.710938 49.960938 239.996094 C 49.960938 239.285156 49.390625 238.703125 48.675781 238.703125 C 47.960938 238.703125 47.382812 239.285156 47.382812 239.996094 C 47.382812 240.710938 47.960938 241.289062 48.675781 241.289062 Z M 96.53125 242.046875 C 97.65625 242.046875 98.566406 241.136719 98.566406 240.015625 C 98.566406 238.902344 97.65625 237.988281 96.53125 237.988281 C 95.417969 237.988281 94.507812 238.902344 94.507812 240.015625 C 94.507812 241.136719 95.417969 242.046875 96.53125 242.046875 Z M 144.394531 242.808594 C 145.921875 242.808594 147.164062 241.566406 147.164062 240.042969 C 147.164062 238.515625 145.921875 237.273438 144.394531 237.273438 C 142.871094 237.273438 141.628906 238.515625 141.628906 240.042969 C 141.628906 241.566406 142.871094 242.808594 144.394531 242.808594 Z M 192.257812 243.5625 C 194.195312 243.5625 195.765625 241.996094 195.765625 240.058594 C 195.765625 238.128906 194.195312 236.558594 192.257812 236.558594 C 190.324219 236.558594 188.753906 238.128906 188.753906 240.058594 C 188.753906 241.996094 190.324219 243.5625 192.257812 243.5625 Z M 240.125 244.324219 C 242.464844 244.324219 244.367188 242.421875 244.367188 240.082031 C 244.367188 237.742188 242.464844 235.839844 240.125 235.839844 C 237.777344 235.839844 235.875 237.742188 235.875 240.082031 C 235.875 242.421875 237.777344 244.324219 240.125 244.324219 Z M 575.171875 287.515625 C 574.808594 287.515625 574.519531 287.804688 574.519531 288.160156 C 574.519531 288.523438 574.808594 288.8125 575.171875 288.8125 C 575.527344 288.8125 575.816406 288.523438 575.816406 288.160156 C 575.816406 287.804688 575.527344 287.515625 575.171875 287.515625 Z M 527.308594 286.625 C 526.46875 286.625 525.796875 287.304688 525.796875 288.144531 C 525.796875 288.984375 526.46875 289.65625 527.308594 289.65625 C 528.148438 289.65625 528.824219 288.984375 528.824219 288.144531 C 528.824219 287.304688 528.148438 286.625 527.308594 286.625 Z M 479.445312 285.738281 C 478.132812 285.738281 477.0625 286.804688 477.0625 288.121094 C 477.0625 289.4375 478.132812 290.503906 479.445312 290.503906 C 480.761719 290.503906 481.828125 289.4375 481.828125 288.121094 C 481.828125 286.804688 480.761719 285.738281 479.445312 285.738281 Z M 431.582031 284.851562 C 429.792969 284.851562 428.335938 286.304688 428.335938 288.101562 C 428.335938 289.894531 429.792969 291.347656 431.582031 291.347656 C 433.382812 291.347656 434.835938 289.894531 434.835938 288.101562 C 434.835938 286.304688 433.378906 284.851562 431.582031 284.851562 Z M 383.722656 283.964844 C 381.449219 283.964844 379.609375 285.804688 379.609375 288.078125 C 379.609375 290.351562 381.453125 292.191406 383.722656 292.191406 C 385.992188 292.191406 387.839844 290.351562 387.839844 288.078125 C 387.839844 285.804688 385.992188 283.964844 383.722656 283.964844 Z M 335.859375 283.078125 C 333.109375 283.078125 330.878906 285.304688 330.878906 288.054688 C 330.878906 290.808594 333.113281 293.039062 335.859375 293.039062 C 338.609375 293.039062 340.84375 290.804688 340.84375 288.054688 C 340.84375 285.304688 338.613281 283.078125 335.859375 283.078125 Z M 575.171875 575.269531 C 575.136719 575.269531 575.105469 575.300781 575.105469 575.335938 C 575.105469 575.371094 575.136719 575.402344 575.171875 575.402344 C 575.207031 575.402344 575.238281 575.371094 575.238281 575.335938 C 575.238281 575.300781 575.207031 575.269531 575.171875 575.269531 Z M 527.308594 575.148438 C 527.21875 575.148438 527.144531 575.222656 527.144531 575.3125 C 527.144531 575.402344 527.21875 575.476562 527.308594 575.476562 C 527.402344 575.476562 527.472656 575.402344 527.472656 575.3125 C 527.472656 575.222656 527.398438 575.148438 527.308594 575.148438 Z M 479.445312 575.035156 C 479.300781 575.035156 479.1875 575.148438 479.1875 575.292969 C 479.1875 575.4375 479.300781 575.554688 479.445312 575.554688 C 479.589844 575.554688 479.707031 575.4375 479.707031 575.292969 C 479.707031 575.148438 479.589844 575.035156 479.445312 575.035156 Z M 431.582031 574.914062 C 431.390625 574.914062 431.226562 575.070312 431.226562 575.269531 C 431.226562 575.46875 431.390625 575.625 431.582031 575.625 C 431.78125 575.625 431.945312 575.46875 431.945312 575.269531 C 431.945312 575.070312 431.78125 574.914062 431.582031 574.914062 Z M 383.722656 574.792969 C 383.472656 574.792969 383.265625 574.996094 383.265625 575.25 C 383.265625 575.496094 383.472656 575.703125 383.722656 575.703125 C 383.972656 575.703125 384.175781 575.5 384.175781 575.25 C 384.175781 574.996094 383.972656 574.792969 383.722656 574.792969 Z M 335.859375 574.671875 C 335.550781 574.671875 335.304688 574.917969 335.304688 575.226562 C 335.304688 575.535156 335.550781 575.78125 335.859375 575.78125 C 336.164062 575.78125 336.410156 575.535156 336.410156 575.226562 C 336.410156 574.921875 336.164062 574.671875 335.859375 574.671875 Z M 575.171875 527.3125 C 575.082031 527.3125 575.007812 527.382812 575.007812 527.476562 C 575.007812 527.566406 575.082031 527.640625 575.171875 527.640625 C 575.265625 527.640625 575.335938 527.566406 575.335938 527.476562 C 575.332031 527.382812 575.261719 527.3125 575.171875 527.3125 Z M 527.308594 527.0625 C 527.09375 527.0625 526.925781 527.238281 526.925781 527.453125 C 526.925781 527.664062 527.09375 527.839844 527.308594 527.839844 C 527.527344 527.839844 527.695312 527.664062 527.695312 527.453125 C 527.695312 527.238281 527.527344 527.0625 527.308594 527.0625 Z M 479.445312 526.816406 C 479.109375 526.816406 478.832031 527.09375 478.832031 527.429688 C 478.832031 527.769531 479.109375 528.046875 479.445312 528.046875 C 479.785156 528.046875 480.0625 527.769531 480.0625 527.429688 C 480.0625 527.09375 479.78125 526.816406 479.445312 526.816406 Z M 431.582031 526.570312 C 431.125 526.570312 430.746094 526.949219 430.746094 527.40625 C 430.746094 527.871094 431.125 528.246094 431.582031 528.246094 C 432.046875 528.246094 432.429688 527.871094 432.429688 527.40625 C 432.429688 526.949219 432.046875 526.570312 431.582031 526.570312 Z M 383.722656 526.320312 C 383.132812 526.320312 382.65625 526.796875 382.65625 527.390625 C 382.65625 527.976562 383.132812 528.453125 383.722656 528.453125 C 384.308594 528.453125 384.785156 527.976562 384.785156 527.390625 C 384.785156 526.796875 384.308594 526.320312 383.722656 526.320312 Z M 335.859375 526.074219 C 335.148438 526.074219 334.570312 526.652344 334.570312 527.363281 C 334.570312 528.074219 335.148438 528.65625 335.859375 528.65625 C 336.574219 528.65625 337.152344 528.078125 337.152344 527.363281 C 337.152344 526.652344 336.574219 526.074219 335.859375 526.074219 Z M 575.171875 479.351562 C 575.027344 479.351562 574.914062 479.472656 574.914062 479.609375 C 574.914062 479.753906 575.027344 479.871094 575.171875 479.871094 C 575.316406 479.871094 575.433594 479.753906 575.433594 479.609375 C 575.433594 479.472656 575.316406 479.351562 575.171875 479.351562 Z M 527.308594 478.976562 C 526.972656 478.976562 526.695312 479.253906 526.695312 479.589844 C 526.695312 479.929688 526.972656 480.207031 527.308594 480.207031 C 527.648438 480.207031 527.925781 479.929688 527.925781 479.589844 C 527.925781 479.253906 527.648438 478.976562 527.308594 478.976562 Z M 479.445312 478.601562 C 478.917969 478.601562 478.480469 479.039062 478.480469 479.570312 C 478.480469 480.105469 478.914062 480.539062 479.445312 480.539062 C 479.980469 480.539062 480.417969 480.105469 480.417969 479.570312 C 480.417969 479.039062 479.980469 478.601562 479.445312 478.601562 Z M 431.582031 478.230469 C 430.859375 478.230469 430.261719 478.820312 430.261719 479.550781 C 430.261719 480.28125 430.859375 480.871094 431.582031 480.871094 C 432.3125 480.871094 432.90625 480.28125 432.90625 479.550781 C 432.90625 478.820312 432.3125 478.230469 431.582031 478.230469 Z M 383.722656 477.847656 C 382.792969 477.847656 382.046875 478.601562 382.046875 479.523438 C 382.046875 480.449219 382.792969 481.203125 383.722656 481.203125 C 384.648438 481.203125 385.394531 480.449219 385.394531 479.523438 C 385.398438 478.601562 384.648438 477.847656 383.722656 477.847656 Z M 335.859375 477.476562 C 334.738281 477.476562 333.835938 478.386719 333.835938 479.5 C 333.835938 480.621094 334.738281 481.535156 335.859375 481.535156 C 336.984375 481.535156 337.886719 480.621094 337.886719 479.5 C 337.890625 478.386719 336.984375 477.476562 335.859375 477.476562 Z M 575.171875 431.390625 C 574.972656 431.390625 574.816406 431.554688 574.816406 431.753906 C 574.816406 431.945312 574.972656 432.109375 575.171875 432.109375 C 575.367188 432.109375 575.527344 431.945312 575.527344 431.753906 C 575.527344 431.554688 575.367188 431.390625 575.171875 431.390625 Z M 527.308594 430.890625 C 526.84375 430.890625 526.46875 431.261719 526.46875 431.726562 C 526.46875 432.191406 526.84375 432.566406 527.308594 432.566406 C 527.773438 432.566406 528.148438 432.191406 528.148438 431.726562 C 528.148438 431.261719 527.773438 430.890625 527.308594 430.890625 Z M 479.445312 430.382812 C 478.714844 430.382812 478.125 430.980469 478.125 431.703125 C 478.125 432.433594 478.714844 433.027344 479.445312 433.027344 C 480.175781 433.027344 480.769531 432.433594 480.769531 431.703125 C 480.769531 430.980469 480.175781 430.382812 479.445312 430.382812 Z M 431.582031 429.882812 C 430.585938 429.882812 429.785156 430.691406 429.785156 431.6875 C 429.785156 432.683594 430.585938 433.492188 431.582031 433.492188 C 432.578125 433.492188 433.386719 432.683594 433.386719 431.6875 C 433.386719 430.691406 432.578125 429.882812 431.582031 429.882812 Z M 383.722656 429.382812 C 382.457031 429.382812 381.4375 430.402344 381.4375 431.660156 C 381.4375 432.921875 382.457031 433.949219 383.722656 433.949219 C 384.984375 433.949219 386.003906 432.921875 386.003906 431.660156 C 386.003906 430.402344 384.984375 429.382812 383.722656 429.382812 Z M 335.859375 428.875 C 334.335938 428.875 333.09375 430.113281 333.09375 431.644531 C 333.09375 433.171875 334.335938 434.40625 335.859375 434.40625 C 337.386719 434.40625 338.625 433.171875 338.625 431.644531 C 338.625 430.113281 337.386719 428.875 335.859375 428.875 Z M 575.171875 383.429688 C 574.917969 383.429688 574.714844 383.632812 574.714844 383.886719 C 574.714844 384.140625 574.917969 384.339844 575.171875 384.339844 C 575.417969 384.339844 575.625 384.140625 575.625 383.886719 C 575.625 383.632812 575.417969 383.429688 575.171875 383.429688 Z M 527.308594 382.800781 C 526.722656 382.800781 526.242188 383.277344 526.242188 383.863281 C 526.242188 384.457031 526.722656 384.933594 527.308594 384.933594 C 527.894531 384.933594 528.378906 384.457031 528.378906 383.863281 C 528.378906 383.277344 527.894531 382.800781 527.308594 382.800781 Z M 479.445312 382.171875 C 478.523438 382.171875 477.777344 382.917969 477.777344 383.847656 C 477.777344 384.769531 478.523438 385.519531 479.445312 385.519531 C 480.375 385.519531 481.125 384.769531 481.125 383.847656 C 481.125 382.917969 480.375 382.171875 479.445312 382.171875 Z M 431.582031 381.535156 C 430.324219 381.535156 429.300781 382.5625 429.300781 383.820312 C 429.300781 385.082031 430.320312 386.109375 431.582031 386.109375 C 432.847656 386.109375 433.867188 385.082031 433.867188 383.820312 C 433.867188 382.5625 432.847656 381.535156 431.582031 381.535156 Z M 383.722656 380.910156 C 382.125 380.910156 380.828125 382.199219 380.828125 383.804688 C 380.828125 385.402344 382.125 386.695312 383.722656 386.695312 C 385.324219 386.695312 386.621094 385.402344 386.621094 383.804688 C 386.621094 382.199219 385.324219 380.910156 383.722656 380.910156 Z M 335.859375 380.277344 C 333.925781 380.277344 332.355469 381.84375 332.355469 383.78125 C 332.355469 385.71875 333.925781 387.285156 335.859375 387.285156 C 337.796875 387.285156 339.367188 385.71875 339.367188 383.78125 C 339.367188 381.84375 337.796875 380.277344 335.859375 380.277344 Z M 575.171875 335.476562 C 574.863281 335.476562 574.617188 335.726562 574.617188 336.027344 C 574.617188 336.335938 574.863281 336.582031 575.171875 336.582031 C 575.472656 336.582031 575.722656 336.335938 575.722656 336.027344 C 575.722656 335.726562 575.472656 335.476562 575.171875 335.476562 Z M 527.308594 334.714844 C 526.597656 334.714844 526.015625 335.289062 526.015625 336.007812 C 526.015625 336.71875 526.597656 337.292969 527.308594 337.292969 C 528.023438 337.292969 528.601562 336.722656 528.601562 336.007812 C 528.597656 335.289062 528.019531 334.714844 527.308594 334.714844 Z M 479.445312 333.957031 C 478.324219 333.957031 477.421875 334.859375 477.421875 335.980469 C 477.421875 337.105469 478.324219 338.007812 479.445312 338.007812 C 480.566406 338.007812 481.472656 337.105469 481.472656 335.980469 C 481.472656 334.859375 480.566406 333.957031 479.445312 333.957031 Z M 431.582031 333.195312 C 430.058594 333.195312 428.820312 334.433594 428.820312 335.957031 C 428.820312 337.492188 430.058594 338.726562 431.582031 338.726562 C 433.117188 338.726562 434.351562 337.492188 434.351562 335.957031 C 434.351562 334.433594 433.117188 333.195312 431.582031 333.195312 Z M 383.722656 332.4375 C 381.789062 332.4375 380.21875 334.003906 380.21875 335.941406 C 380.21875 337.878906 381.789062 339.445312 383.722656 339.445312 C 385.660156 339.445312 387.230469 337.878906 387.230469 335.941406 C 387.230469 334.003906 385.660156 332.4375 383.722656 332.4375 Z M 335.859375 331.675781 C 333.515625 331.675781 331.621094 333.578125 331.621094 335.917969 C 331.621094 338.265625 333.515625 340.167969 335.859375 340.167969 C 338.203125 340.167969 340.101562 338.265625 340.101562 335.917969 C 340.101562 333.578125 338.203125 331.675781 335.859375 331.675781 Z M 287.980469 282.191406 C 291.214844 282.191406 293.832031 284.800781 293.832031 288.035156 C 293.832031 291.265625 291.214844 293.882812 287.980469 293.882812 C 284.753906 293.882812 282.136719 291.265625 282.136719 288.035156 C 282.136719 284.804688 284.753906 282.191406 287.980469 282.191406 Z M 0.8125 287.515625 C 1.167969 287.515625 1.464844 287.804688 1.464844 288.160156 C 1.464844 288.523438 1.167969 288.8125 0.8125 288.8125 C 0.453125 288.8125 0.160156 288.523438 0.160156 288.160156 C 0.160156 287.804688 0.453125 287.515625 0.8125 287.515625 Z M 48.675781 286.625 C 49.507812 286.625 50.1875 287.304688 50.1875 288.144531 C 50.1875 288.984375 49.507812 289.65625 48.675781 289.65625 C 47.835938 289.65625 47.15625 288.984375 47.15625 288.144531 C 47.15625 287.304688 47.835938 286.625 48.675781 286.625 Z M 96.53125 285.738281 C 97.847656 285.738281 98.917969 286.804688 98.917969 288.121094 C 98.917969 289.4375 97.847656 290.503906 96.53125 290.503906 C 95.21875 290.503906 94.148438 289.4375 94.148438 288.121094 C 94.148438 286.804688 95.21875 285.738281 96.53125 285.738281 Z M 144.394531 284.851562 C 146.195312 284.851562 147.648438 286.304688 147.648438 288.101562 C 147.648438 289.894531 146.195312 291.347656 144.394531 291.347656 C 142.605469 291.347656 141.152344 289.894531 141.152344 288.101562 C 141.152344 286.304688 142.605469 284.851562 144.394531 284.851562 Z M 192.257812 283.964844 C 194.535156 283.964844 196.371094 285.804688 196.371094 288.078125 C 196.371094 290.351562 194.53125 292.191406 192.257812 292.191406 C 189.984375 292.191406 188.144531 290.351562 188.144531 288.078125 C 188.144531 285.804688 189.984375 283.964844 192.257812 283.964844 Z M 240.125 283.078125 C 242.875 283.078125 245.101562 285.304688 245.101562 288.054688 C 245.101562 290.808594 242.875 293.039062 240.125 293.039062 C 237.371094 293.039062 235.140625 290.804688 235.140625 288.054688 C 235.140625 285.304688 237.371094 283.078125 240.125 283.078125 Z M 287.980469 574.558594 C 288.34375 574.558594 288.632812 574.847656 288.632812 575.203125 C 288.632812 575.5625 288.34375 575.851562 287.980469 575.851562 C 287.625 575.851562 287.335938 575.5625 287.335938 575.203125 C 287.335938 574.847656 287.625 574.558594 287.980469 574.558594 Z M 0.8125 575.269531 C 0.847656 575.269531 0.878906 575.300781 0.878906 575.335938 C 0.878906 575.371094 0.847656 575.402344 0.8125 575.402344 C 0.777344 575.402344 0.746094 575.371094 0.746094 575.335938 C 0.746094 575.300781 0.777344 575.269531 0.8125 575.269531 Z M 48.675781 575.148438 C 48.761719 575.148438 48.832031 575.222656 48.832031 575.3125 C 48.832031 575.402344 48.761719 575.476562 48.675781 575.476562 C 48.585938 575.476562 48.511719 575.402344 48.511719 575.3125 C 48.511719 575.222656 48.585938 575.148438 48.675781 575.148438 Z M 96.53125 575.035156 C 96.675781 575.035156 96.792969 575.148438 96.792969 575.292969 C 96.792969 575.4375 96.675781 575.554688 96.53125 575.554688 C 96.394531 575.554688 96.273438 575.4375 96.273438 575.292969 C 96.273438 575.148438 96.394531 575.035156 96.53125 575.035156 Z M 144.394531 574.914062 C 144.597656 574.914062 144.75 575.070312 144.75 575.269531 C 144.75 575.46875 144.59375 575.625 144.394531 575.625 C 144.199219 575.625 144.039062 575.46875 144.039062 575.269531 C 144.039062 575.070312 144.199219 574.914062 144.394531 574.914062 Z M 192.257812 574.792969 C 192.511719 574.792969 192.710938 574.996094 192.710938 575.25 C 192.710938 575.496094 192.511719 575.703125 192.257812 575.703125 C 192.003906 575.703125 191.804688 575.5 191.804688 575.25 C 191.808594 574.996094 192.003906 574.792969 192.257812 574.792969 Z M 240.125 574.671875 C 240.425781 574.671875 240.671875 574.917969 240.671875 575.226562 C 240.671875 575.535156 240.425781 575.78125 240.125 575.78125 C 239.816406 575.78125 239.570312 575.535156 239.570312 575.226562 C 239.570312 574.921875 239.816406 574.671875 240.125 574.671875 Z M 287.980469 525.824219 C 288.820312 525.824219 289.5 526.507812 289.5 527.34375 C 289.5 528.175781 288.820312 528.859375 287.980469 528.859375 C 287.148438 528.859375 286.46875 528.175781 286.46875 527.34375 C 286.464844 526.507812 287.148438 525.824219 287.980469 525.824219 Z M 0.8125 527.3125 C 0.90625 527.3125 0.976562 527.382812 0.976562 527.476562 C 0.976562 527.566406 0.90625 527.640625 0.8125 527.640625 C 0.722656 527.640625 0.648438 527.566406 0.648438 527.476562 C 0.648438 527.382812 0.722656 527.3125 0.8125 527.3125 Z M 48.675781 527.0625 C 48.886719 527.0625 49.0625 527.238281 49.0625 527.453125 C 49.0625 527.664062 48.886719 527.839844 48.675781 527.839844 C 48.460938 527.839844 48.285156 527.664062 48.285156 527.453125 C 48.285156 527.238281 48.460938 527.0625 48.675781 527.0625 Z M 96.53125 526.816406 C 96.878906 526.816406 97.148438 527.09375 97.148438 527.429688 C 97.148438 527.769531 96.875 528.046875 96.53125 528.046875 C 96.195312 528.046875 95.925781 527.769531 95.925781 527.429688 C 95.925781 527.09375 96.195312 526.816406 96.53125 526.816406 Z M 144.394531 526.570312 C 144.859375 526.570312 145.234375 526.949219 145.234375 527.40625 C 145.234375 527.871094 144.859375 528.246094 144.394531 528.246094 C 143.933594 528.246094 143.558594 527.871094 143.558594 527.40625 C 143.558594 526.949219 143.933594 526.570312 144.394531 526.570312 Z M 192.257812 526.320312 C 192.84375 526.320312 193.320312 526.796875 193.320312 527.390625 C 193.320312 527.976562 192.84375 528.453125 192.257812 528.453125 C 191.667969 528.453125 191.191406 527.976562 191.191406 527.390625 C 191.191406 526.796875 191.667969 526.320312 192.257812 526.320312 Z M 240.125 526.074219 C 240.835938 526.074219 241.417969 526.652344 241.417969 527.363281 C 241.417969 528.074219 240.835938 528.65625 240.125 528.65625 C 239.410156 528.65625 238.832031 528.078125 238.832031 527.363281 C 238.832031 526.652344 239.410156 526.074219 240.125 526.074219 Z M 287.980469 477.101562 C 289.300781 477.101562 290.363281 478.167969 290.363281 479.484375 C 290.363281 480.800781 289.300781 481.867188 287.980469 481.867188 C 286.664062 481.867188 285.605469 480.800781 285.605469 479.484375 C 285.605469 478.167969 286.664062 477.101562 287.980469 477.101562 Z M 0.8125 479.351562 C 0.957031 479.351562 1.074219 479.472656 1.074219 479.609375 C 1.074219 479.753906 0.957031 479.871094 0.8125 479.871094 C 0.667969 479.871094 0.554688 479.753906 0.554688 479.609375 C 0.554688 479.472656 0.667969 479.351562 0.8125 479.351562 Z M 48.675781 478.976562 C 49.015625 478.976562 49.285156 479.253906 49.285156 479.589844 C 49.285156 479.929688 49.011719 480.207031 48.675781 480.207031 C 48.332031 480.207031 48.0625 479.929688 48.0625 479.589844 C 48.0625 479.253906 48.332031 478.976562 48.675781 478.976562 Z M 96.53125 478.601562 C 97.070312 478.601562 97.503906 479.039062 97.503906 479.570312 C 97.503906 480.105469 97.070312 480.539062 96.53125 480.539062 C 96.003906 480.539062 95.566406 480.105469 95.566406 479.570312 C 95.570312 479.039062 96.003906 478.601562 96.53125 478.601562 Z M 144.394531 478.230469 C 145.125 478.230469 145.71875 478.820312 145.71875 479.550781 C 145.71875 480.28125 145.125 480.871094 144.394531 480.871094 C 143.667969 480.871094 143.074219 480.28125 143.074219 479.550781 C 143.074219 478.820312 143.664062 478.230469 144.394531 478.230469 Z M 192.257812 477.847656 C 193.183594 477.847656 193.9375 478.601562 193.9375 479.523438 C 193.9375 480.449219 193.183594 481.203125 192.257812 481.203125 C 191.335938 481.203125 190.582031 480.449219 190.582031 479.523438 C 190.582031 478.601562 191.335938 477.847656 192.257812 477.847656 Z M 240.125 477.476562 C 241.238281 477.476562 242.148438 478.386719 242.148438 479.5 C 242.148438 480.621094 241.238281 481.535156 240.125 481.535156 C 239.003906 481.535156 238.09375 480.621094 238.09375 479.5 C 238.089844 478.386719 239 477.476562 240.125 477.476562 Z M 287.980469 428.375 C 289.777344 428.375 291.234375 429.828125 291.234375 431.617188 C 291.234375 433.417969 289.78125 434.871094 287.980469 434.871094 C 286.1875 434.871094 284.734375 433.417969 284.734375 431.617188 C 284.734375 429.828125 286.1875 428.375 287.980469 428.375 Z M 0.8125 431.390625 C 1.011719 431.390625 1.167969 431.554688 1.167969 431.753906 C 1.167969 431.945312 1.011719 432.109375 0.8125 432.109375 C 0.613281 432.109375 0.457031 431.945312 0.457031 431.753906 C 0.457031 431.554688 0.613281 431.390625 0.8125 431.390625 Z M 48.675781 430.890625 C 49.132812 430.890625 49.515625 431.261719 49.515625 431.726562 C 49.515625 432.191406 49.132812 432.566406 48.675781 432.566406 C 48.210938 432.566406 47.832031 432.191406 47.832031 431.726562 C 47.832031 431.261719 48.210938 430.890625 48.675781 430.890625 Z M 96.53125 430.382812 C 97.261719 430.382812 97.855469 430.980469 97.855469 431.703125 C 97.855469 432.433594 97.261719 433.027344 96.53125 433.027344 C 95.804688 433.027344 95.210938 432.433594 95.210938 431.703125 C 95.210938 430.980469 95.804688 430.382812 96.53125 430.382812 Z M 144.394531 429.882812 C 145.390625 429.882812 146.199219 430.691406 146.199219 431.6875 C 146.199219 432.683594 145.390625 433.492188 144.394531 433.492188 C 143.398438 433.492188 142.589844 432.683594 142.589844 431.6875 C 142.589844 430.691406 143.402344 429.882812 144.394531 429.882812 Z M 192.257812 429.382812 C 193.519531 429.382812 194.542969 430.402344 194.542969 431.660156 C 194.542969 432.921875 193.519531 433.949219 192.257812 433.949219 C 191 433.949219 189.972656 432.921875 189.972656 431.660156 C 189.972656 430.402344 191 429.382812 192.257812 429.382812 Z M 240.125 428.875 C 241.648438 428.875 242.886719 430.113281 242.886719 431.644531 C 242.886719 433.171875 241.648438 434.40625 240.125 434.40625 C 238.59375 434.40625 237.355469 433.171875 237.355469 431.644531 C 237.351562 430.113281 238.59375 428.875 240.125 428.875 Z M 287.980469 379.640625 C 290.257812 379.640625 292.101562 381.488281 292.101562 383.757812 C 292.101562 386.03125 290.257812 387.871094 287.980469 387.871094 C 285.710938 387.871094 283.867188 386.027344 283.867188 383.757812 C 283.867188 381.488281 285.710938 379.640625 287.980469 379.640625 Z M 0.8125 383.429688 C 1.058594 383.429688 1.265625 383.632812 1.265625 383.886719 C 1.265625 384.140625 1.0625 384.339844 0.8125 384.339844 C 0.558594 384.339844 0.355469 384.140625 0.355469 383.886719 C 0.355469 383.632812 0.558594 383.429688 0.8125 383.429688 Z M 48.675781 382.800781 C 49.261719 382.800781 49.738281 383.277344 49.738281 383.863281 C 49.738281 384.457031 49.261719 384.933594 48.675781 384.933594 C 48.085938 384.933594 47.609375 384.457031 47.609375 383.863281 C 47.609375 383.277344 48.085938 382.800781 48.675781 382.800781 Z M 96.53125 382.171875 C 97.464844 382.171875 98.210938 382.917969 98.210938 383.847656 C 98.210938 384.769531 97.464844 385.519531 96.53125 385.519531 C 95.609375 385.519531 94.863281 384.769531 94.863281 383.847656 C 94.863281 382.917969 95.613281 382.171875 96.53125 382.171875 Z M 144.394531 381.535156 C 145.65625 381.535156 146.683594 382.5625 146.683594 383.820312 C 146.683594 385.082031 145.65625 386.109375 144.394531 386.109375 C 143.136719 386.109375 142.109375 385.082031 142.109375 383.820312 C 142.109375 382.5625 143.136719 381.535156 144.394531 381.535156 Z M 192.257812 380.910156 C 193.855469 380.910156 195.15625 382.199219 195.15625 383.804688 C 195.15625 385.402344 193.859375 386.695312 192.257812 386.695312 C 190.660156 386.695312 189.363281 385.402344 189.363281 383.804688 C 189.363281 382.199219 190.660156 380.910156 192.257812 380.910156 Z M 240.125 380.277344 C 242.0625 380.277344 243.628906 381.84375 243.628906 383.78125 C 243.628906 385.71875 242.0625 387.285156 240.125 387.285156 C 238.1875 387.285156 236.621094 385.71875 236.621094 383.78125 C 236.621094 381.84375 238.1875 380.277344 240.125 380.277344 Z M 0.8125 335.476562 C 1.117188 335.476562 1.363281 335.726562 1.363281 336.027344 C 1.363281 336.335938 1.117188 336.582031 0.8125 336.582031 C 0.503906 336.582031 0.257812 336.335938 0.257812 336.027344 C 0.257812 335.726562 0.503906 335.476562 0.8125 335.476562 Z M 48.675781 334.714844 C 49.386719 334.714844 49.960938 335.289062 49.960938 336.007812 C 49.960938 336.71875 49.390625 337.292969 48.675781 337.292969 C 47.960938 337.292969 47.382812 336.722656 47.382812 336.007812 C 47.382812 335.289062 47.960938 334.714844 48.675781 334.714844 Z M 96.53125 333.957031 C 97.65625 333.957031 98.566406 334.859375 98.566406 335.980469 C 98.566406 337.105469 97.65625 338.007812 96.53125 338.007812 C 95.417969 338.007812 94.507812 337.105469 94.507812 335.980469 C 94.507812 334.859375 95.417969 333.957031 96.53125 333.957031 Z M 144.394531 333.195312 C 145.921875 333.195312 147.164062 334.433594 147.164062 335.957031 C 147.164062 337.492188 145.921875 338.726562 144.394531 338.726562 C 142.871094 338.726562 141.628906 337.492188 141.628906 335.957031 C 141.628906 334.433594 142.871094 333.195312 144.394531 333.195312 Z M 192.257812 332.4375 C 194.195312 332.4375 195.765625 334.003906 195.765625 335.941406 C 195.765625 337.878906 194.195312 339.445312 192.257812 339.445312 C 190.324219 339.445312 188.753906 337.878906 188.753906 335.941406 C 188.753906 334.003906 190.324219 332.4375 192.257812 332.4375 Z M 240.125 331.675781 C 242.464844 331.675781 244.367188 333.578125 244.367188 335.917969 C 244.367188 338.265625 242.464844 340.167969 240.125 340.167969 C 237.777344 340.167969 235.875 338.265625 235.875 335.917969 C 235.875 333.578125 237.777344 331.675781 240.125 331.675781 Z M 240.125 331.675781 " fill-opacity="1" fill-rule="evenodd"/></g></g></g></g></g></svg>